<?xml version="1.0" encoding="utf-8" standalone="no"?>
<!DOCTYPE svg PUBLIC "-//W3C//DTD SVG 1.1//EN"
  "http://www.w3.org/Graphics/SVG/1.1/DTD/svg11.dtd">
<svg xmlns:xlink="http://www.w3.org/1999/xlink" width="715.785937pt" height="391.190938pt" viewBox="0 0 715.785937 391.190938" xmlns="http://www.w3.org/2000/svg" version="1.1">
 <metadata>
  <rdf:RDF xmlns:dc="http://purl.org/dc/elements/1.1/" xmlns:cc="http://creativecommons.org/ns#" xmlns:rdf="http://www.w3.org/1999/02/22-rdf-syntax-ns#">
   <cc:Work>
    <dc:type rdf:resource="http://purl.org/dc/dcmitype/StillImage"/>
    <dc:date>2025-04-25T11:40:21.531320</dc:date>
    <dc:format>image/svg+xml</dc:format>
    <dc:creator>
     <cc:Agent>
      <dc:title>Matplotlib v3.9.2, https://matplotlib.org/</dc:title>
     </cc:Agent>
    </dc:creator>
   </cc:Work>
  </rdf:RDF>
 </metadata>
 <defs>
  <style type="text/css">*{stroke-linejoin: round; stroke-linecap: butt}</style>
 </defs>
 <g id="figure_1">
  <g id="patch_1">
   <path d="M 0 391.190938 
L 715.785937 391.190938 
L 715.785937 0 
L 0 0 
z
" style="fill: #ffffff"/>
  </g>
  <g id="axes_1">
   <g id="patch_2">
    <path d="M 38.985938 354.583125 
L 708.585938 354.583125 
L 708.585938 21.943125 
L 38.985938 21.943125 
z
" style="fill: #ffffff"/>
   </g>
   <g id="matplotlib.axis_1">
    <g id="xtick_1">
     <g id="text_1">
      <!-- 1 -->
      <g style="fill: #262626" transform="translate(50.76199 368.740938) scale(0.1 -0.1)">
       <defs>
        <path id="ArialMT-31" d="M 2384 0 
L 1822 0 
L 1822 3584 
Q 1619 3391 1289 3197 
Q 959 3003 697 2906 
L 697 3450 
Q 1169 3672 1522 3987 
Q 1875 4303 2022 4600 
L 2384 4600 
L 2384 0 
z
" transform="scale(0.015625)"/>
       </defs>
       <use xlink:href="#ArialMT-31"/>
      </g>
     </g>
    </g>
    <g id="xtick_2">
     <g id="text_2">
      <!-- 2 -->
      <g style="fill: #262626" transform="translate(79.875034 368.740938) scale(0.1 -0.1)">
       <defs>
        <path id="ArialMT-32" d="M 3222 541 
L 3222 0 
L 194 0 
Q 188 203 259 391 
Q 375 700 629 1000 
Q 884 1300 1366 1694 
Q 2113 2306 2375 2664 
Q 2638 3022 2638 3341 
Q 2638 3675 2398 3904 
Q 2159 4134 1775 4134 
Q 1369 4134 1125 3890 
Q 881 3647 878 3216 
L 300 3275 
Q 359 3922 746 4261 
Q 1134 4600 1788 4600 
Q 2447 4600 2831 4234 
Q 3216 3869 3216 3328 
Q 3216 3053 3103 2787 
Q 2991 2522 2730 2228 
Q 2469 1934 1863 1422 
Q 1356 997 1212 845 
Q 1069 694 975 541 
L 3222 541 
z
" transform="scale(0.015625)"/>
       </defs>
       <use xlink:href="#ArialMT-32"/>
      </g>
     </g>
    </g>
    <g id="xtick_3">
     <g id="text_3">
      <!-- 3 -->
      <g style="fill: #262626" transform="translate(108.988077 368.740938) scale(0.1 -0.1)">
       <defs>
        <path id="ArialMT-33" d="M 269 1209 
L 831 1284 
Q 928 806 1161 595 
Q 1394 384 1728 384 
Q 2125 384 2398 659 
Q 2672 934 2672 1341 
Q 2672 1728 2419 1979 
Q 2166 2231 1775 2231 
Q 1616 2231 1378 2169 
L 1441 2663 
Q 1497 2656 1531 2656 
Q 1891 2656 2178 2843 
Q 2466 3031 2466 3422 
Q 2466 3731 2256 3934 
Q 2047 4138 1716 4138 
Q 1388 4138 1169 3931 
Q 950 3725 888 3313 
L 325 3413 
Q 428 3978 793 4289 
Q 1159 4600 1703 4600 
Q 2078 4600 2393 4439 
Q 2709 4278 2876 4000 
Q 3044 3722 3044 3409 
Q 3044 3113 2884 2869 
Q 2725 2625 2413 2481 
Q 2819 2388 3044 2092 
Q 3269 1797 3269 1353 
Q 3269 753 2831 336 
Q 2394 -81 1725 -81 
Q 1122 -81 723 278 
Q 325 638 269 1209 
z
" transform="scale(0.015625)"/>
       </defs>
       <use xlink:href="#ArialMT-33"/>
      </g>
     </g>
    </g>
    <g id="xtick_4">
     <g id="text_4">
      <!-- 4 -->
      <g style="fill: #262626" transform="translate(138.101121 368.740938) scale(0.1 -0.1)">
       <defs>
        <path id="ArialMT-34" d="M 2069 0 
L 2069 1097 
L 81 1097 
L 81 1613 
L 2172 4581 
L 2631 4581 
L 2631 1613 
L 3250 1613 
L 3250 1097 
L 2631 1097 
L 2631 0 
L 2069 0 
z
M 2069 1613 
L 2069 3678 
L 634 1613 
L 2069 1613 
z
" transform="scale(0.015625)"/>
       </defs>
       <use xlink:href="#ArialMT-34"/>
      </g>
     </g>
    </g>
    <g id="xtick_5">
     <g id="text_5">
      <!-- 5 -->
      <g style="fill: #262626" transform="translate(167.214164 368.740938) scale(0.1 -0.1)">
       <defs>
        <path id="ArialMT-35" d="M 266 1200 
L 856 1250 
Q 922 819 1161 601 
Q 1400 384 1738 384 
Q 2144 384 2425 690 
Q 2706 997 2706 1503 
Q 2706 1984 2436 2262 
Q 2166 2541 1728 2541 
Q 1456 2541 1237 2417 
Q 1019 2294 894 2097 
L 366 2166 
L 809 4519 
L 3088 4519 
L 3088 3981 
L 1259 3981 
L 1013 2750 
Q 1425 3038 1878 3038 
Q 2478 3038 2890 2622 
Q 3303 2206 3303 1553 
Q 3303 931 2941 478 
Q 2500 -78 1738 -78 
Q 1113 -78 717 272 
Q 322 622 266 1200 
z
" transform="scale(0.015625)"/>
       </defs>
       <use xlink:href="#ArialMT-35"/>
      </g>
     </g>
    </g>
    <g id="xtick_6">
     <g id="text_6">
      <!-- 6 -->
      <g style="fill: #262626" transform="translate(196.327208 368.740938) scale(0.1 -0.1)">
       <defs>
        <path id="ArialMT-36" d="M 3184 3459 
L 2625 3416 
Q 2550 3747 2413 3897 
Q 2184 4138 1850 4138 
Q 1581 4138 1378 3988 
Q 1113 3794 959 3422 
Q 806 3050 800 2363 
Q 1003 2672 1297 2822 
Q 1591 2972 1913 2972 
Q 2475 2972 2870 2558 
Q 3266 2144 3266 1488 
Q 3266 1056 3080 686 
Q 2894 316 2569 119 
Q 2244 -78 1831 -78 
Q 1128 -78 684 439 
Q 241 956 241 2144 
Q 241 3472 731 4075 
Q 1159 4600 1884 4600 
Q 2425 4600 2770 4297 
Q 3116 3994 3184 3459 
z
M 888 1484 
Q 888 1194 1011 928 
Q 1134 663 1356 523 
Q 1578 384 1822 384 
Q 2178 384 2434 671 
Q 2691 959 2691 1453 
Q 2691 1928 2437 2201 
Q 2184 2475 1800 2475 
Q 1419 2475 1153 2201 
Q 888 1928 888 1484 
z
" transform="scale(0.015625)"/>
       </defs>
       <use xlink:href="#ArialMT-36"/>
      </g>
     </g>
    </g>
    <g id="xtick_7">
     <g id="text_7">
      <!-- 7 -->
      <g style="fill: #262626" transform="translate(225.440251 368.740938) scale(0.1 -0.1)">
       <defs>
        <path id="ArialMT-37" d="M 303 3981 
L 303 4522 
L 3269 4522 
L 3269 4084 
Q 2831 3619 2401 2847 
Q 1972 2075 1738 1259 
Q 1569 684 1522 0 
L 944 0 
Q 953 541 1156 1306 
Q 1359 2072 1739 2783 
Q 2119 3494 2547 3981 
L 303 3981 
z
" transform="scale(0.015625)"/>
       </defs>
       <use xlink:href="#ArialMT-37"/>
      </g>
     </g>
    </g>
    <g id="xtick_8">
     <g id="text_8">
      <!-- 8 -->
      <g style="fill: #262626" transform="translate(254.553295 368.740938) scale(0.1 -0.1)">
       <defs>
        <path id="ArialMT-38" d="M 1131 2484 
Q 781 2613 612 2850 
Q 444 3088 444 3419 
Q 444 3919 803 4259 
Q 1163 4600 1759 4600 
Q 2359 4600 2725 4251 
Q 3091 3903 3091 3403 
Q 3091 3084 2923 2848 
Q 2756 2613 2416 2484 
Q 2838 2347 3058 2040 
Q 3278 1734 3278 1309 
Q 3278 722 2862 322 
Q 2447 -78 1769 -78 
Q 1091 -78 675 323 
Q 259 725 259 1325 
Q 259 1772 486 2073 
Q 713 2375 1131 2484 
z
M 1019 3438 
Q 1019 3113 1228 2906 
Q 1438 2700 1772 2700 
Q 2097 2700 2305 2904 
Q 2513 3109 2513 3406 
Q 2513 3716 2298 3927 
Q 2084 4138 1766 4138 
Q 1444 4138 1231 3931 
Q 1019 3725 1019 3438 
z
M 838 1322 
Q 838 1081 952 856 
Q 1066 631 1291 507 
Q 1516 384 1775 384 
Q 2178 384 2440 643 
Q 2703 903 2703 1303 
Q 2703 1709 2433 1975 
Q 2163 2241 1756 2241 
Q 1359 2241 1098 1978 
Q 838 1716 838 1322 
z
" transform="scale(0.015625)"/>
       </defs>
       <use xlink:href="#ArialMT-38"/>
      </g>
     </g>
    </g>
    <g id="xtick_9">
     <g id="text_9">
      <!-- 9 -->
      <g style="fill: #262626" transform="translate(283.666338 368.740938) scale(0.1 -0.1)">
       <defs>
        <path id="ArialMT-39" d="M 350 1059 
L 891 1109 
Q 959 728 1153 556 
Q 1347 384 1650 384 
Q 1909 384 2104 503 
Q 2300 622 2425 820 
Q 2550 1019 2634 1356 
Q 2719 1694 2719 2044 
Q 2719 2081 2716 2156 
Q 2547 1888 2255 1720 
Q 1963 1553 1622 1553 
Q 1053 1553 659 1965 
Q 266 2378 266 3053 
Q 266 3750 677 4175 
Q 1088 4600 1706 4600 
Q 2153 4600 2523 4359 
Q 2894 4119 3086 3673 
Q 3278 3228 3278 2384 
Q 3278 1506 3087 986 
Q 2897 466 2520 194 
Q 2144 -78 1638 -78 
Q 1100 -78 759 220 
Q 419 519 350 1059 
z
M 2653 3081 
Q 2653 3566 2395 3850 
Q 2138 4134 1775 4134 
Q 1400 4134 1122 3828 
Q 844 3522 844 3034 
Q 844 2597 1108 2323 
Q 1372 2050 1759 2050 
Q 2150 2050 2401 2323 
Q 2653 2597 2653 3081 
z
" transform="scale(0.015625)"/>
       </defs>
       <use xlink:href="#ArialMT-39"/>
      </g>
     </g>
    </g>
    <g id="xtick_10">
     <g id="text_10">
      <!-- 10 -->
      <g style="fill: #262626" transform="translate(309.998913 368.740938) scale(0.1 -0.1)">
       <defs>
        <path id="ArialMT-30" d="M 266 2259 
Q 266 3072 433 3567 
Q 600 4063 929 4331 
Q 1259 4600 1759 4600 
Q 2128 4600 2406 4451 
Q 2684 4303 2865 4023 
Q 3047 3744 3150 3342 
Q 3253 2941 3253 2259 
Q 3253 1453 3087 958 
Q 2922 463 2592 192 
Q 2263 -78 1759 -78 
Q 1097 -78 719 397 
Q 266 969 266 2259 
z
M 844 2259 
Q 844 1131 1108 757 
Q 1372 384 1759 384 
Q 2147 384 2411 759 
Q 2675 1134 2675 2259 
Q 2675 3391 2411 3762 
Q 2147 4134 1753 4134 
Q 1366 4134 1134 3806 
Q 844 3388 844 2259 
z
" transform="scale(0.015625)"/>
       </defs>
       <use xlink:href="#ArialMT-31"/>
       <use xlink:href="#ArialMT-30" x="55.615234"/>
      </g>
     </g>
    </g>
    <g id="xtick_11">
     <g id="text_11">
      <!-- 11 -->
      <g style="fill: #262626" transform="translate(339.480707 368.740938) scale(0.1 -0.1)">
       <use xlink:href="#ArialMT-31"/>
       <use xlink:href="#ArialMT-31" x="48.240234"/>
      </g>
     </g>
    </g>
    <g id="xtick_12">
     <g id="text_12">
      <!-- 12 -->
      <g style="fill: #262626" transform="translate(368.225 368.740938) scale(0.1 -0.1)">
       <use xlink:href="#ArialMT-31"/>
       <use xlink:href="#ArialMT-32" x="55.615234"/>
      </g>
     </g>
    </g>
    <g id="xtick_13">
     <g id="text_13">
      <!-- 13 -->
      <g style="fill: #262626" transform="translate(397.338043 368.740938) scale(0.1 -0.1)">
       <use xlink:href="#ArialMT-31"/>
       <use xlink:href="#ArialMT-33" x="55.615234"/>
      </g>
     </g>
    </g>
    <g id="xtick_14">
     <g id="text_14">
      <!-- 14 -->
      <g style="fill: #262626" transform="translate(426.451087 368.740938) scale(0.1 -0.1)">
       <use xlink:href="#ArialMT-31"/>
       <use xlink:href="#ArialMT-34" x="55.615234"/>
      </g>
     </g>
    </g>
    <g id="xtick_15">
     <g id="text_15">
      <!-- 15 -->
      <g style="fill: #262626" transform="translate(455.56413 368.740938) scale(0.1 -0.1)">
       <use xlink:href="#ArialMT-31"/>
       <use xlink:href="#ArialMT-35" x="55.615234"/>
      </g>
     </g>
    </g>
    <g id="xtick_16">
     <g id="text_16">
      <!-- 16 -->
      <g style="fill: #262626" transform="translate(484.677174 368.740938) scale(0.1 -0.1)">
       <use xlink:href="#ArialMT-31"/>
       <use xlink:href="#ArialMT-36" x="55.615234"/>
      </g>
     </g>
    </g>
    <g id="xtick_17">
     <g id="text_17">
      <!-- 17 -->
      <g style="fill: #262626" transform="translate(513.790217 368.740938) scale(0.1 -0.1)">
       <use xlink:href="#ArialMT-31"/>
       <use xlink:href="#ArialMT-37" x="55.615234"/>
      </g>
     </g>
    </g>
    <g id="xtick_18">
     <g id="text_18">
      <!-- 18 -->
      <g style="fill: #262626" transform="translate(542.903261 368.740938) scale(0.1 -0.1)">
       <use xlink:href="#ArialMT-31"/>
       <use xlink:href="#ArialMT-38" x="55.615234"/>
      </g>
     </g>
    </g>
    <g id="xtick_19">
     <g id="text_19">
      <!-- 19 -->
      <g style="fill: #262626" transform="translate(572.016304 368.740938) scale(0.1 -0.1)">
       <use xlink:href="#ArialMT-31"/>
       <use xlink:href="#ArialMT-39" x="55.615234"/>
      </g>
     </g>
    </g>
    <g id="xtick_20">
     <g id="text_20">
      <!-- 20 -->
      <g style="fill: #262626" transform="translate(601.129348 368.740938) scale(0.1 -0.1)">
       <use xlink:href="#ArialMT-32"/>
       <use xlink:href="#ArialMT-30" x="55.615234"/>
      </g>
     </g>
    </g>
    <g id="xtick_21">
     <g id="text_21">
      <!-- 21 -->
      <g style="fill: #262626" transform="translate(630.242391 368.740938) scale(0.1 -0.1)">
       <use xlink:href="#ArialMT-32"/>
       <use xlink:href="#ArialMT-31" x="55.615234"/>
      </g>
     </g>
    </g>
    <g id="xtick_22">
     <g id="text_22">
      <!-- 22 -->
      <g style="fill: #262626" transform="translate(659.355435 368.740938) scale(0.1 -0.1)">
       <use xlink:href="#ArialMT-32"/>
       <use xlink:href="#ArialMT-32" x="55.615234"/>
      </g>
     </g>
    </g>
    <g id="xtick_23">
     <g id="text_23">
      <!-- 23 -->
      <g style="fill: #262626" transform="translate(688.468478 368.740938) scale(0.1 -0.1)">
       <use xlink:href="#ArialMT-32"/>
       <use xlink:href="#ArialMT-33" x="55.615234"/>
      </g>
     </g>
    </g>
    <g id="text_24">
     <!-- Augmentation Factor -->
     <g style="fill: #262626" transform="translate(327.375781 381.88625) scale(0.1 -0.1)">
      <defs>
       <path id="ArialMT-41" d="M -9 0 
L 1750 4581 
L 2403 4581 
L 4278 0 
L 3588 0 
L 3053 1388 
L 1138 1388 
L 634 0 
L -9 0 
z
M 1313 1881 
L 2866 1881 
L 2388 3150 
Q 2169 3728 2063 4100 
Q 1975 3659 1816 3225 
L 1313 1881 
z
" transform="scale(0.015625)"/>
       <path id="ArialMT-75" d="M 2597 0 
L 2597 488 
Q 2209 -75 1544 -75 
Q 1250 -75 995 37 
Q 741 150 617 320 
Q 494 491 444 738 
Q 409 903 409 1263 
L 409 3319 
L 972 3319 
L 972 1478 
Q 972 1038 1006 884 
Q 1059 663 1231 536 
Q 1403 409 1656 409 
Q 1909 409 2131 539 
Q 2353 669 2445 892 
Q 2538 1116 2538 1541 
L 2538 3319 
L 3100 3319 
L 3100 0 
L 2597 0 
z
" transform="scale(0.015625)"/>
       <path id="ArialMT-67" d="M 319 -275 
L 866 -356 
Q 900 -609 1056 -725 
Q 1266 -881 1628 -881 
Q 2019 -881 2231 -725 
Q 2444 -569 2519 -288 
Q 2563 -116 2559 434 
Q 2191 0 1641 0 
Q 956 0 581 494 
Q 206 988 206 1678 
Q 206 2153 378 2554 
Q 550 2956 876 3175 
Q 1203 3394 1644 3394 
Q 2231 3394 2613 2919 
L 2613 3319 
L 3131 3319 
L 3131 450 
Q 3131 -325 2973 -648 
Q 2816 -972 2473 -1159 
Q 2131 -1347 1631 -1347 
Q 1038 -1347 672 -1080 
Q 306 -813 319 -275 
z
M 784 1719 
Q 784 1066 1043 766 
Q 1303 466 1694 466 
Q 2081 466 2343 764 
Q 2606 1063 2606 1700 
Q 2606 2309 2336 2618 
Q 2066 2928 1684 2928 
Q 1309 2928 1046 2623 
Q 784 2319 784 1719 
z
" transform="scale(0.015625)"/>
       <path id="ArialMT-6d" d="M 422 0 
L 422 3319 
L 925 3319 
L 925 2853 
Q 1081 3097 1340 3245 
Q 1600 3394 1931 3394 
Q 2300 3394 2536 3241 
Q 2772 3088 2869 2813 
Q 3263 3394 3894 3394 
Q 4388 3394 4653 3120 
Q 4919 2847 4919 2278 
L 4919 0 
L 4359 0 
L 4359 2091 
Q 4359 2428 4304 2576 
Q 4250 2725 4106 2815 
Q 3963 2906 3769 2906 
Q 3419 2906 3187 2673 
Q 2956 2441 2956 1928 
L 2956 0 
L 2394 0 
L 2394 2156 
Q 2394 2531 2256 2718 
Q 2119 2906 1806 2906 
Q 1569 2906 1367 2781 
Q 1166 2656 1075 2415 
Q 984 2175 984 1722 
L 984 0 
L 422 0 
z
" transform="scale(0.015625)"/>
       <path id="ArialMT-65" d="M 2694 1069 
L 3275 997 
Q 3138 488 2766 206 
Q 2394 -75 1816 -75 
Q 1088 -75 661 373 
Q 234 822 234 1631 
Q 234 2469 665 2931 
Q 1097 3394 1784 3394 
Q 2450 3394 2872 2941 
Q 3294 2488 3294 1666 
Q 3294 1616 3291 1516 
L 816 1516 
Q 847 969 1125 678 
Q 1403 388 1819 388 
Q 2128 388 2347 550 
Q 2566 713 2694 1069 
z
M 847 1978 
L 2700 1978 
Q 2663 2397 2488 2606 
Q 2219 2931 1791 2931 
Q 1403 2931 1139 2672 
Q 875 2413 847 1978 
z
" transform="scale(0.015625)"/>
       <path id="ArialMT-6e" d="M 422 0 
L 422 3319 
L 928 3319 
L 928 2847 
Q 1294 3394 1984 3394 
Q 2284 3394 2536 3286 
Q 2788 3178 2913 3003 
Q 3038 2828 3088 2588 
Q 3119 2431 3119 2041 
L 3119 0 
L 2556 0 
L 2556 2019 
Q 2556 2363 2490 2533 
Q 2425 2703 2258 2804 
Q 2091 2906 1866 2906 
Q 1506 2906 1245 2678 
Q 984 2450 984 1813 
L 984 0 
L 422 0 
z
" transform="scale(0.015625)"/>
       <path id="ArialMT-74" d="M 1650 503 
L 1731 6 
Q 1494 -44 1306 -44 
Q 1000 -44 831 53 
Q 663 150 594 308 
Q 525 466 525 972 
L 525 2881 
L 113 2881 
L 113 3319 
L 525 3319 
L 525 4141 
L 1084 4478 
L 1084 3319 
L 1650 3319 
L 1650 2881 
L 1084 2881 
L 1084 941 
Q 1084 700 1114 631 
Q 1144 563 1211 522 
Q 1278 481 1403 481 
Q 1497 481 1650 503 
z
" transform="scale(0.015625)"/>
       <path id="ArialMT-61" d="M 2588 409 
Q 2275 144 1986 34 
Q 1697 -75 1366 -75 
Q 819 -75 525 192 
Q 231 459 231 875 
Q 231 1119 342 1320 
Q 453 1522 633 1644 
Q 813 1766 1038 1828 
Q 1203 1872 1538 1913 
Q 2219 1994 2541 2106 
Q 2544 2222 2544 2253 
Q 2544 2597 2384 2738 
Q 2169 2928 1744 2928 
Q 1347 2928 1158 2789 
Q 969 2650 878 2297 
L 328 2372 
Q 403 2725 575 2942 
Q 747 3159 1072 3276 
Q 1397 3394 1825 3394 
Q 2250 3394 2515 3294 
Q 2781 3194 2906 3042 
Q 3031 2891 3081 2659 
Q 3109 2516 3109 2141 
L 3109 1391 
Q 3109 606 3145 398 
Q 3181 191 3288 0 
L 2700 0 
Q 2613 175 2588 409 
z
M 2541 1666 
Q 2234 1541 1622 1453 
Q 1275 1403 1131 1340 
Q 988 1278 909 1158 
Q 831 1038 831 891 
Q 831 666 1001 516 
Q 1172 366 1500 366 
Q 1825 366 2078 508 
Q 2331 650 2450 897 
Q 2541 1088 2541 1459 
L 2541 1666 
z
" transform="scale(0.015625)"/>
       <path id="ArialMT-69" d="M 425 3934 
L 425 4581 
L 988 4581 
L 988 3934 
L 425 3934 
z
M 425 0 
L 425 3319 
L 988 3319 
L 988 0 
L 425 0 
z
" transform="scale(0.015625)"/>
       <path id="ArialMT-6f" d="M 213 1659 
Q 213 2581 725 3025 
Q 1153 3394 1769 3394 
Q 2453 3394 2887 2945 
Q 3322 2497 3322 1706 
Q 3322 1066 3130 698 
Q 2938 331 2570 128 
Q 2203 -75 1769 -75 
Q 1072 -75 642 372 
Q 213 819 213 1659 
z
M 791 1659 
Q 791 1022 1069 705 
Q 1347 388 1769 388 
Q 2188 388 2466 706 
Q 2744 1025 2744 1678 
Q 2744 2294 2464 2611 
Q 2184 2928 1769 2928 
Q 1347 2928 1069 2612 
Q 791 2297 791 1659 
z
" transform="scale(0.015625)"/>
       <path id="ArialMT-20" transform="scale(0.015625)"/>
       <path id="ArialMT-46" d="M 525 0 
L 525 4581 
L 3616 4581 
L 3616 4041 
L 1131 4041 
L 1131 2622 
L 3281 2622 
L 3281 2081 
L 1131 2081 
L 1131 0 
L 525 0 
z
" transform="scale(0.015625)"/>
       <path id="ArialMT-63" d="M 2588 1216 
L 3141 1144 
Q 3050 572 2676 248 
Q 2303 -75 1759 -75 
Q 1078 -75 664 370 
Q 250 816 250 1647 
Q 250 2184 428 2587 
Q 606 2991 970 3192 
Q 1334 3394 1763 3394 
Q 2303 3394 2647 3120 
Q 2991 2847 3088 2344 
L 2541 2259 
Q 2463 2594 2264 2762 
Q 2066 2931 1784 2931 
Q 1359 2931 1093 2626 
Q 828 2322 828 1663 
Q 828 994 1084 691 
Q 1341 388 1753 388 
Q 2084 388 2306 591 
Q 2528 794 2588 1216 
z
" transform="scale(0.015625)"/>
       <path id="ArialMT-72" d="M 416 0 
L 416 3319 
L 922 3319 
L 922 2816 
Q 1116 3169 1280 3281 
Q 1444 3394 1641 3394 
Q 1925 3394 2219 3213 
L 2025 2691 
Q 1819 2813 1613 2813 
Q 1428 2813 1281 2702 
Q 1134 2591 1072 2394 
Q 978 2094 978 1738 
L 978 0 
L 416 0 
z
" transform="scale(0.015625)"/>
      </defs>
      <use xlink:href="#ArialMT-41"/>
      <use xlink:href="#ArialMT-75" x="66.699219"/>
      <use xlink:href="#ArialMT-67" x="122.314453"/>
      <use xlink:href="#ArialMT-6d" x="177.929688"/>
      <use xlink:href="#ArialMT-65" x="261.230469"/>
      <use xlink:href="#ArialMT-6e" x="316.845703"/>
      <use xlink:href="#ArialMT-74" x="372.460938"/>
      <use xlink:href="#ArialMT-61" x="400.244141"/>
      <use xlink:href="#ArialMT-74" x="455.859375"/>
      <use xlink:href="#ArialMT-69" x="483.642578"/>
      <use xlink:href="#ArialMT-6f" x="505.859375"/>
      <use xlink:href="#ArialMT-6e" x="561.474609"/>
      <use xlink:href="#ArialMT-20" x="617.089844"/>
      <use xlink:href="#ArialMT-46" x="644.873047"/>
      <use xlink:href="#ArialMT-61" x="705.957031"/>
      <use xlink:href="#ArialMT-63" x="761.572266"/>
      <use xlink:href="#ArialMT-74" x="811.572266"/>
      <use xlink:href="#ArialMT-6f" x="839.355469"/>
      <use xlink:href="#ArialMT-72" x="894.970703"/>
     </g>
    </g>
   </g>
   <g id="matplotlib.axis_2">
    <g id="ytick_1">
     <g id="line2d_1">
      <path d="M 38.985938 351.50219 
L 708.585938 351.50219 
" clip-path="url(#pb5260920c9)" style="fill: none; stroke: #cccccc; stroke-width: 0.8; stroke-linecap: round"/>
     </g>
     <g id="text_25">
      <!-- −4 -->
      <g style="fill: #262626" transform="translate(20.584375 355.081096) scale(0.1 -0.1)">
       <defs>
        <path id="ArialMT-2212" d="M 3381 1997 
L 356 1997 
L 356 2522 
L 3381 2522 
L 3381 1997 
z
" transform="scale(0.015625)"/>
       </defs>
       <use xlink:href="#ArialMT-2212"/>
       <use xlink:href="#ArialMT-34" x="58.398438"/>
      </g>
     </g>
    </g>
    <g id="ytick_2">
     <g id="line2d_2">
      <path d="M 38.985938 314.49977 
L 708.585938 314.49977 
" clip-path="url(#pb5260920c9)" style="fill: none; stroke: #cccccc; stroke-width: 0.8; stroke-linecap: round"/>
     </g>
     <g id="text_26">
      <!-- −2 -->
      <g style="fill: #262626" transform="translate(20.584375 318.078676) scale(0.1 -0.1)">
       <use xlink:href="#ArialMT-2212"/>
       <use xlink:href="#ArialMT-32" x="58.398438"/>
      </g>
     </g>
    </g>
    <g id="ytick_3">
     <g id="line2d_3">
      <path d="M 38.985938 277.49735 
L 708.585938 277.49735 
" clip-path="url(#pb5260920c9)" style="fill: none; stroke: #cccccc; stroke-width: 0.8; stroke-linecap: round"/>
     </g>
     <g id="text_27">
      <!-- 0 -->
      <g style="fill: #262626" transform="translate(26.425 281.076257) scale(0.1 -0.1)">
       <use xlink:href="#ArialMT-30"/>
      </g>
     </g>
    </g>
    <g id="ytick_4">
     <g id="line2d_4">
      <path d="M 38.985938 240.494931 
L 708.585938 240.494931 
" clip-path="url(#pb5260920c9)" style="fill: none; stroke: #cccccc; stroke-width: 0.8; stroke-linecap: round"/>
     </g>
     <g id="text_28">
      <!-- 2 -->
      <g style="fill: #262626" transform="translate(26.425 244.073837) scale(0.1 -0.1)">
       <use xlink:href="#ArialMT-32"/>
      </g>
     </g>
    </g>
    <g id="ytick_5">
     <g id="line2d_5">
      <path d="M 38.985938 203.492511 
L 708.585938 203.492511 
" clip-path="url(#pb5260920c9)" style="fill: none; stroke: #cccccc; stroke-width: 0.8; stroke-linecap: round"/>
     </g>
     <g id="text_29">
      <!-- 4 -->
      <g style="fill: #262626" transform="translate(26.425 207.071417) scale(0.1 -0.1)">
       <use xlink:href="#ArialMT-34"/>
      </g>
     </g>
    </g>
    <g id="ytick_6">
     <g id="line2d_6">
      <path d="M 38.985938 166.490091 
L 708.585938 166.490091 
" clip-path="url(#pb5260920c9)" style="fill: none; stroke: #cccccc; stroke-width: 0.8; stroke-linecap: round"/>
     </g>
     <g id="text_30">
      <!-- 6 -->
      <g style="fill: #262626" transform="translate(26.425 170.068997) scale(0.1 -0.1)">
       <use xlink:href="#ArialMT-36"/>
      </g>
     </g>
    </g>
    <g id="ytick_7">
     <g id="line2d_7">
      <path d="M 38.985938 129.487671 
L 708.585938 129.487671 
" clip-path="url(#pb5260920c9)" style="fill: none; stroke: #cccccc; stroke-width: 0.8; stroke-linecap: round"/>
     </g>
     <g id="text_31">
      <!-- 8 -->
      <g style="fill: #262626" transform="translate(26.425 133.066578) scale(0.1 -0.1)">
       <use xlink:href="#ArialMT-38"/>
      </g>
     </g>
    </g>
    <g id="ytick_8">
     <g id="line2d_8">
      <path d="M 38.985938 92.485252 
L 708.585938 92.485252 
" clip-path="url(#pb5260920c9)" style="fill: none; stroke: #cccccc; stroke-width: 0.8; stroke-linecap: round"/>
     </g>
     <g id="text_32">
      <!-- 10 -->
      <g style="fill: #262626" transform="translate(20.864063 96.064158) scale(0.1 -0.1)">
       <use xlink:href="#ArialMT-31"/>
       <use xlink:href="#ArialMT-30" x="55.615234"/>
      </g>
     </g>
    </g>
    <g id="ytick_9">
     <g id="line2d_9">
      <path d="M 38.985938 55.482832 
L 708.585938 55.482832 
" clip-path="url(#pb5260920c9)" style="fill: none; stroke: #cccccc; stroke-width: 0.8; stroke-linecap: round"/>
     </g>
     <g id="text_33">
      <!-- 12 -->
      <g style="fill: #262626" transform="translate(20.864063 59.061738) scale(0.1 -0.1)">
       <use xlink:href="#ArialMT-31"/>
       <use xlink:href="#ArialMT-32" x="55.615234"/>
      </g>
     </g>
    </g>
    <g id="text_34">
     <!-- Improvement (%) -->
     <g style="fill: #262626" transform="translate(14.479688 226.602969) rotate(-90) scale(0.1 -0.1)">
      <defs>
       <path id="ArialMT-49" d="M 597 0 
L 597 4581 
L 1203 4581 
L 1203 0 
L 597 0 
z
" transform="scale(0.015625)"/>
       <path id="ArialMT-70" d="M 422 -1272 
L 422 3319 
L 934 3319 
L 934 2888 
Q 1116 3141 1344 3267 
Q 1572 3394 1897 3394 
Q 2322 3394 2647 3175 
Q 2972 2956 3137 2557 
Q 3303 2159 3303 1684 
Q 3303 1175 3120 767 
Q 2938 359 2589 142 
Q 2241 -75 1856 -75 
Q 1575 -75 1351 44 
Q 1128 163 984 344 
L 984 -1272 
L 422 -1272 
z
M 931 1641 
Q 931 1000 1190 694 
Q 1450 388 1819 388 
Q 2194 388 2461 705 
Q 2728 1022 2728 1688 
Q 2728 2322 2467 2637 
Q 2206 2953 1844 2953 
Q 1484 2953 1207 2617 
Q 931 2281 931 1641 
z
" transform="scale(0.015625)"/>
       <path id="ArialMT-76" d="M 1344 0 
L 81 3319 
L 675 3319 
L 1388 1331 
Q 1503 1009 1600 663 
Q 1675 925 1809 1294 
L 2547 3319 
L 3125 3319 
L 1869 0 
L 1344 0 
z
" transform="scale(0.015625)"/>
       <path id="ArialMT-28" d="M 1497 -1347 
Q 1031 -759 709 28 
Q 388 816 388 1659 
Q 388 2403 628 3084 
Q 909 3875 1497 4659 
L 1900 4659 
Q 1522 4009 1400 3731 
Q 1209 3300 1100 2831 
Q 966 2247 966 1656 
Q 966 153 1900 -1347 
L 1497 -1347 
z
" transform="scale(0.015625)"/>
       <path id="ArialMT-25" d="M 372 3481 
Q 372 3972 619 4315 
Q 866 4659 1334 4659 
Q 1766 4659 2048 4351 
Q 2331 4044 2331 3447 
Q 2331 2866 2045 2552 
Q 1759 2238 1341 2238 
Q 925 2238 648 2547 
Q 372 2856 372 3481 
z
M 1350 4272 
Q 1141 4272 1002 4090 
Q 863 3909 863 3425 
Q 863 2984 1003 2804 
Q 1144 2625 1350 2625 
Q 1563 2625 1702 2806 
Q 1841 2988 1841 3469 
Q 1841 3913 1700 4092 
Q 1559 4272 1350 4272 
z
M 1353 -169 
L 3859 4659 
L 4316 4659 
L 1819 -169 
L 1353 -169 
z
M 3334 1075 
Q 3334 1569 3581 1911 
Q 3828 2253 4300 2253 
Q 4731 2253 5014 1945 
Q 5297 1638 5297 1041 
Q 5297 459 5011 145 
Q 4725 -169 4303 -169 
Q 3888 -169 3611 142 
Q 3334 453 3334 1075 
z
M 4316 1866 
Q 4103 1866 3964 1684 
Q 3825 1503 3825 1019 
Q 3825 581 3965 400 
Q 4106 219 4313 219 
Q 4528 219 4667 400 
Q 4806 581 4806 1063 
Q 4806 1506 4665 1686 
Q 4525 1866 4316 1866 
z
" transform="scale(0.015625)"/>
       <path id="ArialMT-29" d="M 791 -1347 
L 388 -1347 
Q 1322 153 1322 1656 
Q 1322 2244 1188 2822 
Q 1081 3291 891 3722 
Q 769 4003 388 4659 
L 791 4659 
Q 1378 3875 1659 3084 
Q 1900 2403 1900 1659 
Q 1900 816 1576 28 
Q 1253 -759 791 -1347 
z
" transform="scale(0.015625)"/>
      </defs>
      <use xlink:href="#ArialMT-49"/>
      <use xlink:href="#ArialMT-6d" x="27.783203"/>
      <use xlink:href="#ArialMT-70" x="111.083984"/>
      <use xlink:href="#ArialMT-72" x="166.699219"/>
      <use xlink:href="#ArialMT-6f" x="200"/>
      <use xlink:href="#ArialMT-76" x="255.615234"/>
      <use xlink:href="#ArialMT-65" x="305.615234"/>
      <use xlink:href="#ArialMT-6d" x="361.230469"/>
      <use xlink:href="#ArialMT-65" x="444.53125"/>
      <use xlink:href="#ArialMT-6e" x="500.146484"/>
      <use xlink:href="#ArialMT-74" x="555.761719"/>
      <use xlink:href="#ArialMT-20" x="583.544922"/>
      <use xlink:href="#ArialMT-28" x="611.328125"/>
      <use xlink:href="#ArialMT-25" x="644.628906"/>
      <use xlink:href="#ArialMT-29" x="733.544922"/>
     </g>
    </g>
   </g>
   <g id="patch_3">
    <path d="M 41.897242 282.332161 
L 65.187677 282.332161 
L 65.187677 215.998835 
L 41.897242 215.998835 
L 41.897242 282.332161 
z
" clip-path="url(#pb5260920c9)" style="fill: #4b58af; stroke: #373737; stroke-linejoin: miter"/>
   </g>
   <g id="line2d_10">
    <path d="M 53.542459 282.332161 
L 53.542459 331.912673 
" clip-path="url(#pb5260920c9)" style="fill: none; stroke: #373737"/>
   </g>
   <g id="line2d_11">
    <path d="M 53.542459 215.998835 
L 53.542459 118.566252 
" clip-path="url(#pb5260920c9)" style="fill: none; stroke: #373737"/>
   </g>
   <g id="line2d_12">
    <path d="M 47.719851 331.912673 
L 59.365068 331.912673 
" clip-path="url(#pb5260920c9)" style="fill: none; stroke: #373737; stroke-linecap: round"/>
   </g>
   <g id="line2d_13">
    <path d="M 47.719851 118.566252 
L 59.365068 118.566252 
" clip-path="url(#pb5260920c9)" style="fill: none; stroke: #373737; stroke-linecap: round"/>
   </g>
   <g id="line2d_14"/>
   <g id="patch_4">
    <path d="M 71.010285 285.810416 
L 94.30072 285.810416 
L 94.30072 240.962204 
L 71.010285 240.962204 
L 71.010285 285.810416 
z
" clip-path="url(#pb5260920c9)" style="fill: #596abf; stroke: #373737; stroke-linejoin: miter"/>
   </g>
   <g id="line2d_15">
    <path d="M 82.655503 285.810416 
L 82.655503 330.610871 
" clip-path="url(#pb5260920c9)" style="fill: none; stroke: #373737"/>
   </g>
   <g id="line2d_16">
    <path d="M 82.655503 240.962204 
L 82.655503 232.67063 
" clip-path="url(#pb5260920c9)" style="fill: none; stroke: #373737"/>
   </g>
   <g id="line2d_17">
    <path d="M 76.832894 330.610871 
L 88.478111 330.610871 
" clip-path="url(#pb5260920c9)" style="fill: none; stroke: #373737; stroke-linecap: round"/>
   </g>
   <g id="line2d_18">
    <path d="M 76.832894 232.67063 
L 88.478111 232.67063 
" clip-path="url(#pb5260920c9)" style="fill: none; stroke: #373737; stroke-linecap: round"/>
   </g>
   <g id="line2d_19">
    <defs>
     <path id="m7dd4cbf77b" d="M 0 3 
C 0.795609 3 1.55874 2.683901 2.12132 2.12132 
C 2.683901 1.55874 3 0.795609 3 0 
C 3 -0.795609 2.683901 -1.55874 2.12132 -2.12132 
C 1.55874 -2.683901 0.795609 -3 0 -3 
C -0.795609 -3 -1.55874 -2.683901 -2.12132 -2.12132 
C -2.683901 -1.55874 -3 -0.795609 -3 0 
C -3 0.795609 -2.683901 1.55874 -2.12132 2.12132 
C -1.55874 2.683901 -0.795609 3 0 3 
z
" style="stroke: #373737"/>
    </defs>
    <g clip-path="url(#pb5260920c9)">
     <use xlink:href="#m7dd4cbf77b" x="82.655503" y="135.840755" style="fill-opacity: 0; stroke: #373737"/>
    </g>
   </g>
   <g id="patch_5">
    <path d="M 100.123329 274.233483 
L 123.413764 274.233483 
L 123.413764 159.776027 
L 100.123329 159.776027 
L 100.123329 274.233483 
z
" clip-path="url(#pb5260920c9)" style="fill: #687dcf; stroke: #373737; stroke-linejoin: miter"/>
   </g>
   <g id="line2d_20">
    <path d="M 111.768546 274.233483 
L 111.768546 285.270968 
" clip-path="url(#pb5260920c9)" style="fill: none; stroke: #373737"/>
   </g>
   <g id="line2d_21">
    <path d="M 111.768546 159.776027 
L 111.768546 135.840755 
" clip-path="url(#pb5260920c9)" style="fill: none; stroke: #373737"/>
   </g>
   <g id="line2d_22">
    <path d="M 105.945938 285.270968 
L 117.591155 285.270968 
" clip-path="url(#pb5260920c9)" style="fill: none; stroke: #373737; stroke-linecap: round"/>
   </g>
   <g id="line2d_23">
    <path d="M 105.945938 135.840755 
L 117.591155 135.840755 
" clip-path="url(#pb5260920c9)" style="fill: none; stroke: #373737; stroke-linecap: round"/>
   </g>
   <g id="line2d_24"/>
   <g id="patch_6">
    <path d="M 129.236372 271.897397 
L 152.526807 271.897397 
L 152.526807 203.793611 
L 129.236372 203.793611 
L 129.236372 271.897397 
z
" clip-path="url(#pb5260920c9)" style="fill: #758edb; stroke: #373737; stroke-linejoin: miter"/>
   </g>
   <g id="line2d_25">
    <path d="M 140.88159 271.897397 
L 140.88159 289.157777 
" clip-path="url(#pb5260920c9)" style="fill: none; stroke: #373737"/>
   </g>
   <g id="line2d_26">
    <path d="M 140.88159 203.793611 
L 140.88159 197.827069 
" clip-path="url(#pb5260920c9)" style="fill: none; stroke: #373737"/>
   </g>
   <g id="line2d_27">
    <path d="M 135.058981 289.157777 
L 146.704198 289.157777 
" clip-path="url(#pb5260920c9)" style="fill: none; stroke: #373737; stroke-linecap: round"/>
   </g>
   <g id="line2d_28">
    <path d="M 135.058981 197.827069 
L 146.704198 197.827069 
" clip-path="url(#pb5260920c9)" style="fill: none; stroke: #373737; stroke-linecap: round"/>
   </g>
   <g id="line2d_29">
    <g clip-path="url(#pb5260920c9)">
     <use xlink:href="#m7dd4cbf77b" x="140.88159" y="61.514063" style="fill-opacity: 0; stroke: #373737"/>
    </g>
   </g>
   <g id="patch_7">
    <path d="M 158.349416 297.357778 
L 181.639851 297.357778 
L 181.639851 214.629796 
L 158.349416 214.629796 
L 158.349416 297.357778 
z
" clip-path="url(#pb5260920c9)" style="fill: #859fe5; stroke: #373737; stroke-linejoin: miter"/>
   </g>
   <g id="line2d_30">
    <path d="M 169.994633 297.357778 
L 169.994633 312.906364 
" clip-path="url(#pb5260920c9)" style="fill: none; stroke: #373737"/>
   </g>
   <g id="line2d_31">
    <path d="M 169.994633 214.629796 
L 169.994633 118.566252 
" clip-path="url(#pb5260920c9)" style="fill: none; stroke: #373737"/>
   </g>
   <g id="line2d_32">
    <path d="M 164.172024 312.906364 
L 175.817242 312.906364 
" clip-path="url(#pb5260920c9)" style="fill: none; stroke: #373737; stroke-linecap: round"/>
   </g>
   <g id="line2d_33">
    <path d="M 164.172024 118.566252 
L 175.817242 118.566252 
" clip-path="url(#pb5260920c9)" style="fill: none; stroke: #373737; stroke-linecap: round"/>
   </g>
   <g id="line2d_34"/>
   <g id="patch_8">
    <path d="M 187.462459 262.309095 
L 210.752894 262.309095 
L 210.752894 203.793611 
L 187.462459 203.793611 
L 187.462459 262.309095 
z
" clip-path="url(#pb5260920c9)" style="fill: #94aeed; stroke: #373737; stroke-linejoin: miter"/>
   </g>
   <g id="line2d_35">
    <path d="M 199.107677 262.309095 
L 199.107677 277.49735 
" clip-path="url(#pb5260920c9)" style="fill: none; stroke: #373737"/>
   </g>
   <g id="line2d_36">
    <path d="M 199.107677 203.793611 
L 199.107677 197.827069 
" clip-path="url(#pb5260920c9)" style="fill: none; stroke: #373737"/>
   </g>
   <g id="line2d_37">
    <path d="M 193.285068 277.49735 
L 204.930285 277.49735 
" clip-path="url(#pb5260920c9)" style="fill: none; stroke: #373737; stroke-linecap: round"/>
   </g>
   <g id="line2d_38">
    <path d="M 193.285068 197.827069 
L 204.930285 197.827069 
" clip-path="url(#pb5260920c9)" style="fill: none; stroke: #373737; stroke-linecap: round"/>
   </g>
   <g id="line2d_39">
    <g clip-path="url(#pb5260920c9)">
     <use xlink:href="#m7dd4cbf77b" x="199.107677" y="49.288594" style="fill-opacity: 0; stroke: #373737"/>
    </g>
   </g>
   <g id="patch_9">
    <path d="M 216.575503 261.510771 
L 239.865938 261.510771 
L 239.865938 223.770803 
L 216.575503 223.770803 
L 216.575503 261.510771 
z
" clip-path="url(#pb5260920c9)" style="fill: #a2bbf1; stroke: #373737; stroke-linejoin: miter"/>
   </g>
   <g id="line2d_40">
    <path d="M 228.22072 261.510771 
L 228.22072 269.723733 
" clip-path="url(#pb5260920c9)" style="fill: none; stroke: #373737"/>
   </g>
   <g id="line2d_41">
    <path d="M 228.22072 223.770803 
L 228.22072 215.531576 
" clip-path="url(#pb5260920c9)" style="fill: none; stroke: #373737"/>
   </g>
   <g id="line2d_42">
    <path d="M 222.398111 269.723733 
L 234.043329 269.723733 
" clip-path="url(#pb5260920c9)" style="fill: none; stroke: #373737; stroke-linecap: round"/>
   </g>
   <g id="line2d_43">
    <path d="M 222.398111 215.531576 
L 234.043329 215.531576 
" clip-path="url(#pb5260920c9)" style="fill: none; stroke: #373737; stroke-linecap: round"/>
   </g>
   <g id="line2d_44">
    <g clip-path="url(#pb5260920c9)">
     <use xlink:href="#m7dd4cbf77b" x="228.22072" y="163.392972" style="fill-opacity: 0; stroke: #373737"/>
    </g>
   </g>
   <g id="patch_10">
    <path d="M 245.688546 272.023578 
L 268.978981 272.023578 
L 268.978981 238.900654 
L 245.688546 238.900654 
L 245.688546 272.023578 
z
" clip-path="url(#pb5260920c9)" style="fill: #b0c7f3; stroke: #373737; stroke-linejoin: miter"/>
   </g>
   <g id="line2d_45">
    <path d="M 257.333764 272.023578 
L 257.333764 277.49735 
" clip-path="url(#pb5260920c9)" style="fill: none; stroke: #373737"/>
   </g>
   <g id="line2d_46">
    <path d="M 257.333764 238.900654 
L 257.333764 191.987557 
" clip-path="url(#pb5260920c9)" style="fill: none; stroke: #373737"/>
   </g>
   <g id="line2d_47">
    <path d="M 251.511155 277.49735 
L 263.156372 277.49735 
" clip-path="url(#pb5260920c9)" style="fill: none; stroke: #373737; stroke-linecap: round"/>
   </g>
   <g id="line2d_48">
    <path d="M 251.511155 191.987557 
L 263.156372 191.987557 
" clip-path="url(#pb5260920c9)" style="fill: none; stroke: #373737; stroke-linecap: round"/>
   </g>
   <g id="line2d_49"/>
   <g id="patch_11">
    <path d="M 274.80159 249.924186 
L 298.092024 249.924186 
L 298.092024 157.64426 
L 274.80159 157.64426 
L 274.80159 249.924186 
z
" clip-path="url(#pb5260920c9)" style="fill: #bdd0f2; stroke: #373737; stroke-linejoin: miter"/>
   </g>
   <g id="line2d_50">
    <path d="M 286.446807 249.924186 
L 286.446807 261.381314 
" clip-path="url(#pb5260920c9)" style="fill: none; stroke: #373737"/>
   </g>
   <g id="line2d_51">
    <path d="M 286.446807 157.64426 
L 286.446807 144.713547 
" clip-path="url(#pb5260920c9)" style="fill: none; stroke: #373737"/>
   </g>
   <g id="line2d_52">
    <path d="M 280.624198 261.381314 
L 292.269416 261.381314 
" clip-path="url(#pb5260920c9)" style="fill: none; stroke: #373737; stroke-linecap: round"/>
   </g>
   <g id="line2d_53">
    <path d="M 280.624198 144.713547 
L 292.269416 144.713547 
" clip-path="url(#pb5260920c9)" style="fill: none; stroke: #373737; stroke-linecap: round"/>
   </g>
   <g id="line2d_54"/>
   <g id="patch_12">
    <path d="M 303.914633 245.549895 
L 327.205068 245.549895 
L 327.205068 172.776711 
L 303.914633 172.776711 
L 303.914633 245.549895 
z
" clip-path="url(#pb5260920c9)" style="fill: #c9d7ee; stroke: #373737; stroke-linejoin: miter"/>
   </g>
   <g id="line2d_55">
    <path d="M 315.559851 245.549895 
L 315.559851 339.463125 
" clip-path="url(#pb5260920c9)" style="fill: none; stroke: #373737"/>
   </g>
   <g id="line2d_56">
    <path d="M 315.559851 172.776711 
L 315.559851 106.340783 
" clip-path="url(#pb5260920c9)" style="fill: none; stroke: #373737"/>
   </g>
   <g id="line2d_57">
    <path d="M 309.737242 339.463125 
L 321.382459 339.463125 
" clip-path="url(#pb5260920c9)" style="fill: none; stroke: #373737; stroke-linecap: round"/>
   </g>
   <g id="line2d_58">
    <path d="M 309.737242 106.340783 
L 321.382459 106.340783 
" clip-path="url(#pb5260920c9)" style="fill: none; stroke: #373737; stroke-linecap: round"/>
   </g>
   <g id="line2d_59"/>
   <g id="patch_13">
    <path d="M 333.027677 268.440755 
L 356.318111 268.440755 
L 356.318111 133.534371 
L 333.027677 133.534371 
L 333.027677 268.440755 
z
" clip-path="url(#pb5260920c9)" style="fill: #d4dbe6; stroke: #373737; stroke-linejoin: miter"/>
   </g>
   <g id="line2d_60">
    <path d="M 344.672894 268.440755 
L 344.672894 269.010557 
" clip-path="url(#pb5260920c9)" style="fill: none; stroke: #373737"/>
   </g>
   <g id="line2d_61">
    <path d="M 344.672894 133.534371 
L 344.672894 57.438907 
" clip-path="url(#pb5260920c9)" style="fill: none; stroke: #373737"/>
   </g>
   <g id="line2d_62">
    <path d="M 338.850285 269.010557 
L 350.495503 269.010557 
" clip-path="url(#pb5260920c9)" style="fill: none; stroke: #373737; stroke-linecap: round"/>
   </g>
   <g id="line2d_63">
    <path d="M 338.850285 57.438907 
L 350.495503 57.438907 
" clip-path="url(#pb5260920c9)" style="fill: none; stroke: #373737; stroke-linecap: round"/>
   </g>
   <g id="line2d_64"/>
   <g id="patch_14">
    <path d="M 362.14072 257.281205 
L 385.431155 257.281205 
L 385.431155 133.616438 
L 362.14072 133.616438 
L 362.14072 257.281205 
z
" clip-path="url(#pb5260920c9)" style="fill: #dddcdc; stroke: #373737; stroke-linejoin: miter"/>
   </g>
   <g id="line2d_65">
    <path d="M 373.785937 257.281205 
L 373.785937 277.49735 
" clip-path="url(#pb5260920c9)" style="fill: none; stroke: #373737"/>
   </g>
   <g id="line2d_66">
    <path d="M 373.785937 133.616438 
L 373.785937 109.304533 
" clip-path="url(#pb5260920c9)" style="fill: none; stroke: #373737"/>
   </g>
   <g id="line2d_67">
    <path d="M 367.963329 277.49735 
L 379.608546 277.49735 
" clip-path="url(#pb5260920c9)" style="fill: none; stroke: #373737; stroke-linecap: round"/>
   </g>
   <g id="line2d_68">
    <path d="M 367.963329 109.304533 
L 379.608546 109.304533 
" clip-path="url(#pb5260920c9)" style="fill: none; stroke: #373737; stroke-linecap: round"/>
   </g>
   <g id="line2d_69"/>
   <g id="patch_15">
    <path d="M 391.253764 221.328177 
L 414.544198 221.328177 
L 414.544198 157.080677 
L 391.253764 157.080677 
L 391.253764 221.328177 
z
" clip-path="url(#pb5260920c9)" style="fill: #e4d7d0; stroke: #373737; stroke-linejoin: miter"/>
   </g>
   <g id="line2d_70">
    <path d="M 402.898981 221.328177 
L 402.898981 245.265277 
" clip-path="url(#pb5260920c9)" style="fill: none; stroke: #373737"/>
   </g>
   <g id="line2d_71">
    <path d="M 402.898981 157.080677 
L 402.898981 134.866878 
" clip-path="url(#pb5260920c9)" style="fill: none; stroke: #373737"/>
   </g>
   <g id="line2d_72">
    <path d="M 397.076372 245.265277 
L 408.72159 245.265277 
" clip-path="url(#pb5260920c9)" style="fill: none; stroke: #373737; stroke-linecap: round"/>
   </g>
   <g id="line2d_73">
    <path d="M 397.076372 134.866878 
L 408.72159 134.866878 
" clip-path="url(#pb5260920c9)" style="fill: none; stroke: #373737; stroke-linecap: round"/>
   </g>
   <g id="line2d_74"/>
   <g id="patch_16">
    <path d="M 420.366807 229.785881 
L 443.657242 229.785881 
L 443.657242 119.733959 
L 420.366807 119.733959 
L 420.366807 229.785881 
z
" clip-path="url(#pb5260920c9)" style="fill: #eacfc1; stroke: #373737; stroke-linejoin: miter"/>
   </g>
   <g id="line2d_75">
    <path d="M 432.012024 229.785881 
L 432.012024 254.934899 
" clip-path="url(#pb5260920c9)" style="fill: none; stroke: #373737"/>
   </g>
   <g id="line2d_76">
    <path d="M 432.012024 119.733959 
L 432.012024 82.747773 
" clip-path="url(#pb5260920c9)" style="fill: none; stroke: #373737"/>
   </g>
   <g id="line2d_77">
    <path d="M 426.189416 254.934899 
L 437.834633 254.934899 
" clip-path="url(#pb5260920c9)" style="fill: none; stroke: #373737; stroke-linecap: round"/>
   </g>
   <g id="line2d_78">
    <path d="M 426.189416 82.747773 
L 437.834633 82.747773 
" clip-path="url(#pb5260920c9)" style="fill: none; stroke: #373737; stroke-linecap: round"/>
   </g>
   <g id="line2d_79"/>
   <g id="patch_17">
    <path d="M 449.479851 218.879894 
L 472.770285 218.879894 
L 472.770285 165.683107 
L 449.479851 165.683107 
L 449.479851 218.879894 
z
" clip-path="url(#pb5260920c9)" style="fill: #ecc5b2; stroke: #373737; stroke-linejoin: miter"/>
   </g>
   <g id="line2d_80">
    <path d="M 461.125068 218.879894 
L 461.125068 261.381314 
" clip-path="url(#pb5260920c9)" style="fill: none; stroke: #373737"/>
   </g>
   <g id="line2d_81">
    <path d="M 461.125068 165.683107 
L 461.125068 162.418054 
" clip-path="url(#pb5260920c9)" style="fill: none; stroke: #373737"/>
   </g>
   <g id="line2d_82">
    <path d="M 455.302459 261.381314 
L 466.947677 261.381314 
" clip-path="url(#pb5260920c9)" style="fill: none; stroke: #373737; stroke-linecap: round"/>
   </g>
   <g id="line2d_83">
    <path d="M 455.302459 162.418054 
L 466.947677 162.418054 
" clip-path="url(#pb5260920c9)" style="fill: none; stroke: #373737; stroke-linecap: round"/>
   </g>
   <g id="line2d_84"/>
   <g id="patch_18">
    <path d="M 478.592894 250.732162 
L 501.883329 250.732162 
L 501.883329 203.331831 
L 478.592894 203.331831 
L 478.592894 250.732162 
z
" clip-path="url(#pb5260920c9)" style="fill: #ebb8a2; stroke: #373737; stroke-linejoin: miter"/>
   </g>
   <g id="line2d_85">
    <path d="M 490.238111 250.732162 
L 490.238111 273.204726 
" clip-path="url(#pb5260920c9)" style="fill: none; stroke: #373737"/>
   </g>
   <g id="line2d_86">
    <path d="M 490.238111 203.331831 
L 490.238111 188.974815 
" clip-path="url(#pb5260920c9)" style="fill: none; stroke: #373737"/>
   </g>
   <g id="line2d_87">
    <path d="M 484.415503 273.204726 
L 496.06072 273.204726 
" clip-path="url(#pb5260920c9)" style="fill: none; stroke: #373737; stroke-linecap: round"/>
   </g>
   <g id="line2d_88">
    <path d="M 484.415503 188.974815 
L 496.06072 188.974815 
" clip-path="url(#pb5260920c9)" style="fill: none; stroke: #373737; stroke-linecap: round"/>
   </g>
   <g id="line2d_89">
    <g clip-path="url(#pb5260920c9)">
     <use xlink:href="#m7dd4cbf77b" x="490.238111" y="122.641409" style="fill-opacity: 0; stroke: #373737"/>
    </g>
   </g>
   <g id="patch_19">
    <path d="M 507.705938 235.832656 
L 530.996372 235.832656 
L 530.996372 136.046144 
L 507.705938 136.046144 
L 507.705938 235.832656 
z
" clip-path="url(#pb5260920c9)" style="fill: #e7a891; stroke: #373737; stroke-linejoin: miter"/>
   </g>
   <g id="line2d_90">
    <path d="M 519.351155 235.832656 
L 519.351155 290.227541 
" clip-path="url(#pb5260920c9)" style="fill: none; stroke: #373737"/>
   </g>
   <g id="line2d_91">
    <path d="M 519.351155 136.046144 
L 519.351155 37.063125 
" clip-path="url(#pb5260920c9)" style="fill: none; stroke: #373737"/>
   </g>
   <g id="line2d_92">
    <path d="M 513.528546 290.227541 
L 525.173764 290.227541 
" clip-path="url(#pb5260920c9)" style="fill: none; stroke: #373737; stroke-linecap: round"/>
   </g>
   <g id="line2d_93">
    <path d="M 513.528546 37.063125 
L 525.173764 37.063125 
" clip-path="url(#pb5260920c9)" style="fill: none; stroke: #373737; stroke-linecap: round"/>
   </g>
   <g id="line2d_94"/>
   <g id="patch_20">
    <path d="M 536.818981 248.306232 
L 560.109416 248.306232 
L 560.109416 163.995209 
L 536.818981 163.995209 
L 536.818981 248.306232 
z
" clip-path="url(#pb5260920c9)" style="fill: #e29982; stroke: #373737; stroke-linejoin: miter"/>
   </g>
   <g id="line2d_95">
    <path d="M 548.464198 248.306232 
L 548.464198 265.836924 
" clip-path="url(#pb5260920c9)" style="fill: none; stroke: #373737"/>
   </g>
   <g id="line2d_96">
    <path d="M 548.464198 163.995209 
L 548.464198 102.265627 
" clip-path="url(#pb5260920c9)" style="fill: none; stroke: #373737"/>
   </g>
   <g id="line2d_97">
    <path d="M 542.64159 265.836924 
L 554.286807 265.836924 
" clip-path="url(#pb5260920c9)" style="fill: none; stroke: #373737; stroke-linecap: round"/>
   </g>
   <g id="line2d_98">
    <path d="M 542.64159 102.265627 
L 554.286807 102.265627 
" clip-path="url(#pb5260920c9)" style="fill: none; stroke: #373737; stroke-linecap: round"/>
   </g>
   <g id="line2d_99"/>
   <g id="patch_21">
    <path d="M 565.932024 242.587389 
L 589.222459 242.587389 
L 589.222459 166.305036 
L 565.932024 166.305036 
L 565.932024 242.587389 
z
" clip-path="url(#pb5260920c9)" style="fill: #d98672; stroke: #373737; stroke-linejoin: miter"/>
   </g>
   <g id="line2d_100">
    <path d="M 577.577242 242.587389 
L 577.577242 274.274143 
" clip-path="url(#pb5260920c9)" style="fill: none; stroke: #373737"/>
   </g>
   <g id="line2d_101">
    <path d="M 577.577242 166.305036 
L 577.577242 90.040158 
" clip-path="url(#pb5260920c9)" style="fill: none; stroke: #373737"/>
   </g>
   <g id="line2d_102">
    <path d="M 571.754633 274.274143 
L 583.399851 274.274143 
" clip-path="url(#pb5260920c9)" style="fill: none; stroke: #373737; stroke-linecap: round"/>
   </g>
   <g id="line2d_103">
    <path d="M 571.754633 90.040158 
L 583.399851 90.040158 
" clip-path="url(#pb5260920c9)" style="fill: none; stroke: #373737; stroke-linecap: round"/>
   </g>
   <g id="line2d_104"/>
   <g id="patch_22">
    <path d="M 595.045068 233.340889 
L 618.335503 233.340889 
L 618.335503 211.747051 
L 595.045068 211.747051 
L 595.045068 233.340889 
z
" clip-path="url(#pb5260920c9)" style="fill: #ce7162; stroke: #373737; stroke-linejoin: miter"/>
   </g>
   <g id="line2d_105">
    <path d="M 606.690285 233.340889 
L 606.690285 243.156357 
" clip-path="url(#pb5260920c9)" style="fill: none; stroke: #373737"/>
   </g>
   <g id="line2d_106">
    <path d="M 606.690285 211.747051 
L 606.690285 207.534792 
" clip-path="url(#pb5260920c9)" style="fill: none; stroke: #373737"/>
   </g>
   <g id="line2d_107">
    <path d="M 600.867677 243.156357 
L 612.512894 243.156357 
" clip-path="url(#pb5260920c9)" style="fill: none; stroke: #373737; stroke-linecap: round"/>
   </g>
   <g id="line2d_108">
    <path d="M 600.867677 207.534792 
L 612.512894 207.534792 
" clip-path="url(#pb5260920c9)" style="fill: none; stroke: #373737; stroke-linecap: round"/>
   </g>
   <g id="line2d_109">
    <g clip-path="url(#pb5260920c9)">
     <use xlink:href="#m7dd4cbf77b" x="606.690285" y="49.288594" style="fill-opacity: 0; stroke: #373737"/>
    </g>
   </g>
   <g id="patch_23">
    <path d="M 624.158111 233.201383 
L 647.448546 233.201383 
L 647.448546 185.291604 
L 624.158111 185.291604 
L 624.158111 233.201383 
z
" clip-path="url(#pb5260920c9)" style="fill: #c15d53; stroke: #373737; stroke-linejoin: miter"/>
   </g>
   <g id="line2d_110">
    <path d="M 635.803329 233.201383 
L 635.803329 269.010557 
" clip-path="url(#pb5260920c9)" style="fill: none; stroke: #373737"/>
   </g>
   <g id="line2d_111">
    <path d="M 635.803329 185.291604 
L 635.803329 118.566252 
" clip-path="url(#pb5260920c9)" style="fill: none; stroke: #373737"/>
   </g>
   <g id="line2d_112">
    <path d="M 629.98072 269.010557 
L 641.625937 269.010557 
" clip-path="url(#pb5260920c9)" style="fill: none; stroke: #373737; stroke-linecap: round"/>
   </g>
   <g id="line2d_113">
    <path d="M 629.98072 118.566252 
L 641.625937 118.566252 
" clip-path="url(#pb5260920c9)" style="fill: none; stroke: #373737; stroke-linecap: round"/>
   </g>
   <g id="line2d_114"/>
   <g id="patch_24">
    <path d="M 653.271155 230.120943 
L 676.56159 230.120943 
L 676.56159 154.50032 
L 653.271155 154.50032 
L 653.271155 230.120943 
z
" clip-path="url(#pb5260920c9)" style="fill: #b24344; stroke: #373737; stroke-linejoin: miter"/>
   </g>
   <g id="line2d_115">
    <path d="M 664.916372 230.120943 
L 664.916372 256.280366 
" clip-path="url(#pb5260920c9)" style="fill: none; stroke: #373737"/>
   </g>
   <g id="line2d_116">
    <path d="M 664.916372 154.50032 
L 664.916372 90.040158 
" clip-path="url(#pb5260920c9)" style="fill: none; stroke: #373737"/>
   </g>
   <g id="line2d_117">
    <path d="M 659.093764 256.280366 
L 670.738981 256.280366 
" clip-path="url(#pb5260920c9)" style="fill: none; stroke: #373737; stroke-linecap: round"/>
   </g>
   <g id="line2d_118">
    <path d="M 659.093764 90.040158 
L 670.738981 90.040158 
" clip-path="url(#pb5260920c9)" style="fill: none; stroke: #373737; stroke-linecap: round"/>
   </g>
   <g id="line2d_119"/>
   <g id="patch_25">
    <path d="M 682.384198 205.828388 
L 705.674633 205.828388 
L 705.674633 171.338552 
L 682.384198 171.338552 
L 682.384198 205.828388 
z
" clip-path="url(#pb5260920c9)" style="fill: #9e1a34; stroke: #373737; stroke-linejoin: miter"/>
   </g>
   <g id="line2d_120">
    <path d="M 694.029416 205.828388 
L 694.029416 226.576589 
" clip-path="url(#pb5260920c9)" style="fill: none; stroke: #373737"/>
   </g>
   <g id="line2d_121">
    <path d="M 694.029416 171.338552 
L 694.029416 171.270308 
" clip-path="url(#pb5260920c9)" style="fill: none; stroke: #373737"/>
   </g>
   <g id="line2d_122">
    <path d="M 688.206807 226.576589 
L 699.852024 226.576589 
" clip-path="url(#pb5260920c9)" style="fill: none; stroke: #373737; stroke-linecap: round"/>
   </g>
   <g id="line2d_123">
    <path d="M 688.206807 171.270308 
L 699.852024 171.270308 
" clip-path="url(#pb5260920c9)" style="fill: none; stroke: #373737; stroke-linecap: round"/>
   </g>
   <g id="line2d_124">
    <g clip-path="url(#pb5260920c9)">
     <use xlink:href="#m7dd4cbf77b" x="694.029416" y="88.62189" style="fill-opacity: 0; stroke: #373737"/>
    </g>
   </g>
   <g id="line2d_125">
    <path d="M 38.985938 277.49735 
L 708.585938 277.49735 
" clip-path="url(#pb5260920c9)" style="fill: none; stroke: #000000; stroke-linecap: round"/>
   </g>
   <g id="line2d_126">
    <path d="M 41.897242 247.448982 
L 65.187677 247.448982 
" clip-path="url(#pb5260920c9)" style="fill: none; stroke: #373737"/>
   </g>
   <g id="line2d_127">
    <path d="M 71.010285 273.788835 
L 94.30072 273.788835 
" clip-path="url(#pb5260920c9)" style="fill: none; stroke: #373737"/>
   </g>
   <g id="line2d_128">
    <path d="M 100.123329 224.76938 
L 123.413764 224.76938 
" clip-path="url(#pb5260920c9)" style="fill: none; stroke: #373737"/>
   </g>
   <g id="line2d_129">
    <path d="M 129.236372 244.760483 
L 152.526807 244.760483 
" clip-path="url(#pb5260920c9)" style="fill: none; stroke: #373737"/>
   </g>
   <g id="line2d_130">
    <path d="M 158.349416 243.511473 
L 181.639851 243.511473 
" clip-path="url(#pb5260920c9)" style="fill: none; stroke: #373737"/>
   </g>
   <g id="line2d_131">
    <path d="M 187.462459 238.314068 
L 210.752894 238.314068 
" clip-path="url(#pb5260920c9)" style="fill: none; stroke: #373737"/>
   </g>
   <g id="line2d_132">
    <path d="M 216.575503 250.115045 
L 239.865938 250.115045 
" clip-path="url(#pb5260920c9)" style="fill: none; stroke: #373737"/>
   </g>
   <g id="line2d_133">
    <path d="M 245.688546 265.019521 
L 268.978981 265.019521 
" clip-path="url(#pb5260920c9)" style="fill: none; stroke: #373737"/>
   </g>
   <g id="line2d_134">
    <path d="M 274.80159 201.199465 
L 298.092024 201.199465 
" clip-path="url(#pb5260920c9)" style="fill: none; stroke: #373737"/>
   </g>
   <g id="line2d_135">
    <path d="M 303.914633 229.007041 
L 327.205068 229.007041 
" clip-path="url(#pb5260920c9)" style="fill: none; stroke: #373737"/>
   </g>
   <g id="line2d_136">
    <path d="M 333.027677 255.1719 
L 356.318111 255.1719 
" clip-path="url(#pb5260920c9)" style="fill: none; stroke: #373737"/>
   </g>
   <g id="line2d_137">
    <path d="M 362.14072 216.850948 
L 385.431155 216.850948 
" clip-path="url(#pb5260920c9)" style="fill: none; stroke: #373737"/>
   </g>
   <g id="line2d_138">
    <path d="M 391.253764 168.713218 
L 414.544198 168.713218 
" clip-path="url(#pb5260920c9)" style="fill: none; stroke: #373737"/>
   </g>
   <g id="line2d_139">
    <path d="M 420.366807 217.695977 
L 443.657242 217.695977 
" clip-path="url(#pb5260920c9)" style="fill: none; stroke: #373737"/>
   </g>
   <g id="line2d_140">
    <path d="M 449.479851 177.806566 
L 472.770285 177.806566 
" clip-path="url(#pb5260920c9)" style="fill: none; stroke: #373737"/>
   </g>
   <g id="line2d_141">
    <path d="M 478.592894 247.098226 
L 501.883329 247.098226 
" clip-path="url(#pb5260920c9)" style="fill: none; stroke: #373737"/>
   </g>
   <g id="line2d_142">
    <path d="M 507.705938 184.976423 
L 530.996372 184.976423 
" clip-path="url(#pb5260920c9)" style="fill: none; stroke: #373737"/>
   </g>
   <g id="line2d_143">
    <path d="M 536.818981 223.543328 
L 560.109416 223.543328 
" clip-path="url(#pb5260920c9)" style="fill: none; stroke: #373737"/>
   </g>
   <g id="line2d_144">
    <path d="M 565.932024 215.745788 
L 589.222459 215.745788 
" clip-path="url(#pb5260920c9)" style="fill: none; stroke: #373737"/>
   </g>
   <g id="line2d_145">
    <path d="M 595.045068 225.480209 
L 618.335503 225.480209 
" clip-path="url(#pb5260920c9)" style="fill: none; stroke: #373737"/>
   </g>
   <g id="line2d_146">
    <path d="M 624.158111 199.333439 
L 647.448546 199.333439 
" clip-path="url(#pb5260920c9)" style="fill: none; stroke: #373737"/>
   </g>
   <g id="line2d_147">
    <path d="M 653.271155 186.780144 
L 676.56159 186.780144 
" clip-path="url(#pb5260920c9)" style="fill: none; stroke: #373737"/>
   </g>
   <g id="line2d_148">
    <path d="M 682.384198 177.878612 
L 705.674633 177.878612 
" clip-path="url(#pb5260920c9)" style="fill: none; stroke: #373737"/>
   </g>
   <g id="patch_26">
    <path d="M 38.985938 354.583125 
L 38.985938 21.943125 
" style="fill: none; stroke: #cccccc; stroke-width: 0.8; stroke-linejoin: miter; stroke-linecap: square"/>
   </g>
   <g id="patch_27">
    <path d="M 708.585938 354.583125 
L 708.585938 21.943125 
" style="fill: none; stroke: #cccccc; stroke-width: 0.8; stroke-linejoin: miter; stroke-linecap: square"/>
   </g>
   <g id="patch_28">
    <path d="M 38.985938 354.583125 
L 708.585938 354.583125 
" style="fill: none; stroke: #cccccc; stroke-width: 0.8; stroke-linejoin: miter; stroke-linecap: square"/>
   </g>
   <g id="patch_29">
    <path d="M 38.985938 21.943125 
L 708.585938 21.943125 
" style="fill: none; stroke: #cccccc; stroke-width: 0.8; stroke-linejoin: miter; stroke-linecap: square"/>
   </g>
   <g id="PathCollection_1">
    <defs>
     <path id="mdc9ba16bf1" d="M 0 2.5 
C 0.663008 2.5 1.29895 2.236584 1.767767 1.767767 
C 2.236584 1.29895 2.5 0.663008 2.5 0 
C 2.5 -0.663008 2.236584 -1.29895 1.767767 -1.767767 
C 1.29895 -2.236584 0.663008 -2.5 0 -2.5 
C -0.663008 -2.5 -1.29895 -2.236584 -1.767767 -1.767767 
C -2.236584 -1.29895 -2.5 -0.663008 -2.5 0 
C -2.5 0.663008 -2.236584 1.29895 -1.767767 1.767767 
C -1.29895 2.236584 -0.663008 2.5 0 2.5 
z
"/>
    </defs>
    <g clip-path="url(#pb5260920c9)">
     <use xlink:href="#mdc9ba16bf1" x="55.761897" y="277.49735" style="fill-opacity: 0.7"/>
     <use xlink:href="#mdc9ba16bf1" x="52.380975" y="283.943765" style="fill-opacity: 0.7"/>
     <use xlink:href="#mdc9ba16bf1" x="53.824868" y="215.531576" style="fill-opacity: 0.7"/>
     <use xlink:href="#mdc9ba16bf1" x="53.118389" y="331.912673" style="fill-opacity: 0.7"/>
     <use xlink:href="#mdc9ba16bf1" x="52.777825" y="118.566252" style="fill-opacity: 0.7"/>
     <use xlink:href="#mdc9ba16bf1" x="50.915361" y="217.400613" style="fill-opacity: 0.7"/>
    </g>
   </g>
   <g id="PathCollection_2">
    <g clip-path="url(#pb5260920c9)">
     <use xlink:href="#mdc9ba16bf1" x="81.903201" y="281.740747" style="fill-opacity: 0.7"/>
     <use xlink:href="#mdc9ba16bf1" x="79.785621" y="287.166972" style="fill-opacity: 0.7"/>
     <use xlink:href="#mdc9ba16bf1" x="83.119565" y="330.610871" style="fill-opacity: 0.7"/>
     <use xlink:href="#mdc9ba16bf1" x="80.508138" y="265.836924" style="fill-opacity: 0.7"/>
     <use xlink:href="#mdc9ba16bf1" x="83.490987" y="232.67063" style="fill-opacity: 0.7"/>
     <use xlink:href="#mdc9ba16bf1" x="83.679438" y="135.840755" style="fill-opacity: 0.7"/>
    </g>
   </g>
   <g id="PathCollection_3">
    <g clip-path="url(#pb5260920c9)">
     <use xlink:href="#mdc9ba16bf1" x="109.247451" y="281.740747" style="fill-opacity: 0.7"/>
     <use xlink:href="#mdc9ba16bf1" x="109.762063" y="251.711692" style="fill-opacity: 0.7"/>
     <use xlink:href="#mdc9ba16bf1" x="113.075639" y="197.827069" style="fill-opacity: 0.7"/>
     <use xlink:href="#mdc9ba16bf1" x="114.215222" y="285.270968" style="fill-opacity: 0.7"/>
     <use xlink:href="#mdc9ba16bf1" x="109.100293" y="147.092347" style="fill-opacity: 0.7"/>
     <use xlink:href="#mdc9ba16bf1" x="110.312897" y="135.840755" style="fill-opacity: 0.7"/>
    </g>
   </g>
   <g id="PathCollection_4">
    <g clip-path="url(#pb5260920c9)">
     <use xlink:href="#mdc9ba16bf1" x="142.463702" y="273.253954" style="fill-opacity: 0.7"/>
     <use xlink:href="#mdc9ba16bf1" x="143.678127" y="267.827728" style="fill-opacity: 0.7"/>
     <use xlink:href="#mdc9ba16bf1" x="140.808071" y="197.827069" style="fill-opacity: 0.7"/>
     <use xlink:href="#mdc9ba16bf1" x="142.848271" y="289.157777" style="fill-opacity: 0.7"/>
     <use xlink:href="#mdc9ba16bf1" x="143.403516" y="61.514063" style="fill-opacity: 0.7"/>
     <use xlink:href="#mdc9ba16bf1" x="140.353077" y="221.693237" style="fill-opacity: 0.7"/>
    </g>
   </g>
   <g id="PathCollection_5">
    <g clip-path="url(#pb5260920c9)">
     <use xlink:href="#mdc9ba16bf1" x="168.112448" y="307.201128" style="fill-opacity: 0.7"/>
     <use xlink:href="#mdc9ba16bf1" x="170.554946" y="267.827728" style="fill-opacity: 0.7"/>
     <use xlink:href="#mdc9ba16bf1" x="167.4584" y="312.906364" style="fill-opacity: 0.7"/>
     <use xlink:href="#mdc9ba16bf1" x="170.54852" y="219.195218" style="fill-opacity: 0.7"/>
     <use xlink:href="#mdc9ba16bf1" x="167.38352" y="118.566252" style="fill-opacity: 0.7"/>
     <use xlink:href="#mdc9ba16bf1" x="172.332293" y="213.107989" style="fill-opacity: 0.7"/>
    </g>
   </g>
   <g id="PathCollection_6">
    <g clip-path="url(#pb5260920c9)">
     <use xlink:href="#mdc9ba16bf1" x="200.930228" y="264.76716" style="fill-opacity: 0.7"/>
     <use xlink:href="#mdc9ba16bf1" x="197.317966" y="254.934899" style="fill-opacity: 0.7"/>
     <use xlink:href="#mdc9ba16bf1" x="201.971524" y="197.827069" style="fill-opacity: 0.7"/>
     <use xlink:href="#mdc9ba16bf1" x="199.12875" y="277.49735" style="fill-opacity: 0.7"/>
     <use xlink:href="#mdc9ba16bf1" x="197.842475" y="49.288594" style="fill-opacity: 0.7"/>
     <use xlink:href="#mdc9ba16bf1" x="197.445232" y="221.693237" style="fill-opacity: 0.7"/>
    </g>
   </g>
   <g id="PathCollection_7">
    <g clip-path="url(#pb5260920c9)">
     <use xlink:href="#mdc9ba16bf1" x="230.546146" y="264.76716" style="fill-opacity: 0.7"/>
     <use xlink:href="#mdc9ba16bf1" x="230.53035" y="248.488485" style="fill-opacity: 0.7"/>
     <use xlink:href="#mdc9ba16bf1" x="228.684051" y="215.531576" style="fill-opacity: 0.7"/>
     <use xlink:href="#mdc9ba16bf1" x="226.605846" y="269.723733" style="fill-opacity: 0.7"/>
     <use xlink:href="#mdc9ba16bf1" x="230.825454" y="163.392972" style="fill-opacity: 0.7"/>
     <use xlink:href="#mdc9ba16bf1" x="229.500007" y="251.741606" style="fill-opacity: 0.7"/>
    </g>
   </g>
   <g id="PathCollection_8">
    <g clip-path="url(#pb5260920c9)">
     <use xlink:href="#mdc9ba16bf1" x="255.011146" y="264.76716" style="fill-opacity: 0.7"/>
     <use xlink:href="#mdc9ba16bf1" x="254.781481" y="274.274143" style="fill-opacity: 0.7"/>
     <use xlink:href="#mdc9ba16bf1" x="258.049957" y="277.49735" style="fill-opacity: 0.7"/>
     <use xlink:href="#mdc9ba16bf1" x="257.526787" y="191.987557" style="fill-opacity: 0.7"/>
     <use xlink:href="#mdc9ba16bf1" x="254.666504" y="265.271881" style="fill-opacity: 0.7"/>
     <use xlink:href="#mdc9ba16bf1" x="256.56212" y="230.278485" style="fill-opacity: 0.7"/>
    </g>
   </g>
   <g id="PathCollection_9">
    <g clip-path="url(#pb5260920c9)">
     <use xlink:href="#mdc9ba16bf1" x="286.980137" y="256.280366" style="fill-opacity: 0.7"/>
     <use xlink:href="#mdc9ba16bf1" x="284.323605" y="261.381314" style="fill-opacity: 0.7"/>
     <use xlink:href="#mdc9ba16bf1" x="288.326474" y="144.713547" style="fill-opacity: 0.7"/>
     <use xlink:href="#mdc9ba16bf1" x="286.215608" y="230.855645" style="fill-opacity: 0.7"/>
     <use xlink:href="#mdc9ba16bf1" x="285.245091" y="171.543285" style="fill-opacity: 0.7"/>
     <use xlink:href="#mdc9ba16bf1" x="283.751428" y="153.011251" style="fill-opacity: 0.7"/>
    </g>
   </g>
   <g id="PathCollection_10">
    <g clip-path="url(#pb5260920c9)">
     <use xlink:href="#mdc9ba16bf1" x="316.89085" y="247.793573" style="fill-opacity: 0.7"/>
     <use xlink:href="#mdc9ba16bf1" x="317.78242" y="238.818863" style="fill-opacity: 0.7"/>
     <use xlink:href="#mdc9ba16bf1" x="315.32954" y="339.463125" style="fill-opacity: 0.7"/>
     <use xlink:href="#mdc9ba16bf1" x="317.992275" y="219.195218" style="fill-opacity: 0.7"/>
     <use xlink:href="#mdc9ba16bf1" x="315.11874" y="106.340783" style="fill-opacity: 0.7"/>
     <use xlink:href="#mdc9ba16bf1" x="316.835074" y="157.303875" style="fill-opacity: 0.7"/>
    </g>
   </g>
   <g id="PathCollection_11">
    <g clip-path="url(#pb5260920c9)">
     <use xlink:href="#mdc9ba16bf1" x="346.631497" y="269.010557" style="fill-opacity: 0.7"/>
     <use xlink:href="#mdc9ba16bf1" x="346.818559" y="267.827728" style="fill-opacity: 0.7"/>
     <use xlink:href="#mdc9ba16bf1" x="342.632805" y="268.645097" style="fill-opacity: 0.7"/>
     <use xlink:href="#mdc9ba16bf1" x="342.041457" y="242.516071" style="fill-opacity: 0.7"/>
     <use xlink:href="#mdc9ba16bf1" x="344.154967" y="57.438907" style="fill-opacity: 0.7"/>
     <use xlink:href="#mdc9ba16bf1" x="346.991031" y="97.207138" style="fill-opacity: 0.7"/>
    </g>
   </g>
   <g id="PathCollection_12">
    <g clip-path="url(#pb5260920c9)">
     <use xlink:href="#mdc9ba16bf1" x="375.112345" y="277.49735" style="fill-opacity: 0.7"/>
     <use xlink:href="#mdc9ba16bf1" x="374.937533" y="254.934899" style="fill-opacity: 0.7"/>
     <use xlink:href="#mdc9ba16bf1" x="375.006868" y="109.304533" style="fill-opacity: 0.7"/>
     <use xlink:href="#mdc9ba16bf1" x="373.370657" y="258.063306" style="fill-opacity: 0.7"/>
     <use xlink:href="#mdc9ba16bf1" x="376.417416" y="118.566252" style="fill-opacity: 0.7"/>
     <use xlink:href="#mdc9ba16bf1" x="374.110194" y="178.766996" style="fill-opacity: 0.7"/>
    </g>
   </g>
   <g id="PathCollection_13">
    <g clip-path="url(#pb5260920c9)">
     <use xlink:href="#mdc9ba16bf1" x="402.389453" y="235.063383" style="fill-opacity: 0.7"/>
     <use xlink:href="#mdc9ba16bf1" x="400.240276" y="245.265277" style="fill-opacity: 0.7"/>
     <use xlink:href="#mdc9ba16bf1" x="402.436293" y="180.122561" style="fill-opacity: 0.7"/>
     <use xlink:href="#mdc9ba16bf1" x="404.48389" y="157.006278" style="fill-opacity: 0.7"/>
     <use xlink:href="#mdc9ba16bf1" x="402.829504" y="134.866878" style="fill-opacity: 0.7"/>
     <use xlink:href="#mdc9ba16bf1" x="401.023039" y="157.303875" style="fill-opacity: 0.7"/>
    </g>
   </g>
   <g id="PathCollection_14">
    <g clip-path="url(#pb5260920c9)">
     <use xlink:href="#mdc9ba16bf1" x="430.780124" y="226.576589" style="fill-opacity: 0.7"/>
     <use xlink:href="#mdc9ba16bf1" x="430.237718" y="254.934899" style="fill-opacity: 0.7"/>
     <use xlink:href="#mdc9ba16bf1" x="434.631883" y="82.747773" style="fill-opacity: 0.7"/>
     <use xlink:href="#mdc9ba16bf1" x="434.310303" y="230.855645" style="fill-opacity: 0.7"/>
     <use xlink:href="#mdc9ba16bf1" x="429.641977" y="90.040158" style="fill-opacity: 0.7"/>
     <use xlink:href="#mdc9ba16bf1" x="431.347264" y="208.815365" style="fill-opacity: 0.7"/>
    </g>
   </g>
   <g id="PathCollection_15">
    <g clip-path="url(#pb5260920c9)">
     <use xlink:href="#mdc9ba16bf1" x="459.505032" y="230.819986" style="fill-opacity: 0.7"/>
     <use xlink:href="#mdc9ba16bf1" x="459.458937" y="261.381314" style="fill-opacity: 0.7"/>
     <use xlink:href="#mdc9ba16bf1" x="460.598503" y="162.418054" style="fill-opacity: 0.7"/>
     <use xlink:href="#mdc9ba16bf1" x="462.212624" y="172.553513" style="fill-opacity: 0.7"/>
     <use xlink:href="#mdc9ba16bf1" x="461.25387" y="163.392972" style="fill-opacity: 0.7"/>
     <use xlink:href="#mdc9ba16bf1" x="461.429582" y="183.05962" style="fill-opacity: 0.7"/>
    </g>
   </g>
   <g id="PathCollection_16">
    <g clip-path="url(#pb5260920c9)">
     <use xlink:href="#mdc9ba16bf1" x="492.35316" y="247.793573" style="fill-opacity: 0.7"/>
     <use xlink:href="#mdc9ba16bf1" x="491.246861" y="251.711692" style="fill-opacity: 0.7"/>
     <use xlink:href="#mdc9ba16bf1" x="488.982809" y="188.974815" style="fill-opacity: 0.7"/>
     <use xlink:href="#mdc9ba16bf1" x="492.26982" y="246.40288" style="fill-opacity: 0.7"/>
     <use xlink:href="#mdc9ba16bf1" x="490.564744" y="122.641409" style="fill-opacity: 0.7"/>
     <use xlink:href="#mdc9ba16bf1" x="487.98822" y="273.204726" style="fill-opacity: 0.7"/>
    </g>
   </g>
   <g id="PathCollection_17">
    <g clip-path="url(#pb5260920c9)">
     <use xlink:href="#mdc9ba16bf1" x="521.44454" y="290.227541" style="fill-opacity: 0.7"/>
     <use xlink:href="#mdc9ba16bf1" x="518.521434" y="245.265277" style="fill-opacity: 0.7"/>
     <use xlink:href="#mdc9ba16bf1" x="520.905785" y="162.418054" style="fill-opacity: 0.7"/>
     <use xlink:href="#mdc9ba16bf1" x="516.8175" y="207.534792" style="fill-opacity: 0.7"/>
     <use xlink:href="#mdc9ba16bf1" x="521.977375" y="37.063125" style="fill-opacity: 0.7"/>
     <use xlink:href="#mdc9ba16bf1" x="517.603892" y="127.255507" style="fill-opacity: 0.7"/>
    </g>
   </g>
   <g id="PathCollection_18">
    <g clip-path="url(#pb5260920c9)">
     <use xlink:href="#mdc9ba16bf1" x="549.894888" y="256.280366" style="fill-opacity: 0.7"/>
     <use xlink:href="#mdc9ba16bf1" x="549.657567" y="222.702826" style="fill-opacity: 0.7"/>
     <use xlink:href="#mdc9ba16bf1" x="546.930731" y="224.383829" style="fill-opacity: 0.7"/>
     <use xlink:href="#mdc9ba16bf1" x="547.512932" y="265.836924" style="fill-opacity: 0.7"/>
     <use xlink:href="#mdc9ba16bf1" x="551.115691" y="102.265627" style="fill-opacity: 0.7"/>
     <use xlink:href="#mdc9ba16bf1" x="548.928477" y="144.426003" style="fill-opacity: 0.7"/>
    </g>
   </g>
   <g id="PathCollection_19">
    <g clip-path="url(#pb5260920c9)">
     <use xlink:href="#mdc9ba16bf1" x="579.999351" y="247.793573" style="fill-opacity: 0.7"/>
     <use xlink:href="#mdc9ba16bf1" x="577.065277" y="274.274143" style="fill-opacity: 0.7"/>
     <use xlink:href="#mdc9ba16bf1" x="575.685395" y="153.565801" style="fill-opacity: 0.7"/>
     <use xlink:href="#mdc9ba16bf1" x="580.140214" y="226.968836" style="fill-opacity: 0.7"/>
     <use xlink:href="#mdc9ba16bf1" x="579.890044" y="90.040158" style="fill-opacity: 0.7"/>
     <use xlink:href="#mdc9ba16bf1" x="575.544003" y="204.522741" style="fill-opacity: 0.7"/>
    </g>
   </g>
   <g id="PathCollection_20">
    <g clip-path="url(#pb5260920c9)">
     <use xlink:href="#mdc9ba16bf1" x="608.511155" y="226.576589" style="fill-opacity: 0.7"/>
     <use xlink:href="#mdc9ba16bf1" x="607.633209" y="235.595655" style="fill-opacity: 0.7"/>
     <use xlink:href="#mdc9ba16bf1" x="608.776708" y="224.383829" style="fill-opacity: 0.7"/>
     <use xlink:href="#mdc9ba16bf1" x="604.632903" y="207.534792" style="fill-opacity: 0.7"/>
     <use xlink:href="#mdc9ba16bf1" x="604.403479" y="49.288594" style="fill-opacity: 0.7"/>
     <use xlink:href="#mdc9ba16bf1" x="605.871788" y="243.156357" style="fill-opacity: 0.7"/>
    </g>
   </g>
   <g id="PathCollection_21">
    <g clip-path="url(#pb5260920c9)">
     <use xlink:href="#mdc9ba16bf1" x="634.79384" y="269.010557" style="fill-opacity: 0.7"/>
     <use xlink:href="#mdc9ba16bf1" x="634.231261" y="242.04207" style="fill-opacity: 0.7"/>
     <use xlink:href="#mdc9ba16bf1" x="636.818954" y="206.679322" style="fill-opacity: 0.7"/>
     <use xlink:href="#mdc9ba16bf1" x="635.407898" y="191.987557" style="fill-opacity: 0.7"/>
     <use xlink:href="#mdc9ba16bf1" x="633.742787" y="118.566252" style="fill-opacity: 0.7"/>
     <use xlink:href="#mdc9ba16bf1" x="636.160467" y="183.05962" style="fill-opacity: 0.7"/>
    </g>
   </g>
   <g id="PathCollection_22">
    <g clip-path="url(#pb5260920c9)">
     <use xlink:href="#mdc9ba16bf1" x="663.306127" y="256.280366" style="fill-opacity: 0.7"/>
     <use xlink:href="#mdc9ba16bf1" x="662.508796" y="216.256412" style="fill-opacity: 0.7"/>
     <use xlink:href="#mdc9ba16bf1" x="664.188716" y="153.565801" style="fill-opacity: 0.7"/>
     <use xlink:href="#mdc9ba16bf1" x="666.571759" y="234.742454" style="fill-opacity: 0.7"/>
     <use xlink:href="#mdc9ba16bf1" x="665.113742" y="90.040158" style="fill-opacity: 0.7"/>
     <use xlink:href="#mdc9ba16bf1" x="667.392109" y="157.303875" style="fill-opacity: 0.7"/>
    </g>
   </g>
   <g id="PathCollection_23">
    <g clip-path="url(#pb5260920c9)">
     <use xlink:href="#mdc9ba16bf1" x="695.127457" y="226.576589" style="fill-opacity: 0.7"/>
     <use xlink:href="#mdc9ba16bf1" x="695.381582" y="213.033204" style="fill-opacity: 0.7"/>
     <use xlink:href="#mdc9ba16bf1" x="694.184436" y="171.270308" style="fill-opacity: 0.7"/>
     <use xlink:href="#mdc9ba16bf1" x="693.072856" y="184.213939" style="fill-opacity: 0.7"/>
     <use xlink:href="#mdc9ba16bf1" x="692.87745" y="171.543285" style="fill-opacity: 0.7"/>
     <use xlink:href="#mdc9ba16bf1" x="691.748139" y="88.62189" style="fill-opacity: 0.7"/>
    </g>
   </g>
   <g id="text_35">
    <!-- Percent Improvement Over Baseline (Test F1) by Augmentation Factor -->
    <g style="fill: #262626" transform="translate(186.719063 15.943125) scale(0.12 -0.12)">
     <defs>
      <path id="ArialMT-50" d="M 494 0 
L 494 4581 
L 2222 4581 
Q 2678 4581 2919 4538 
Q 3256 4481 3484 4323 
Q 3713 4166 3852 3881 
Q 3991 3597 3991 3256 
Q 3991 2672 3619 2267 
Q 3247 1863 2275 1863 
L 1100 1863 
L 1100 0 
L 494 0 
z
M 1100 2403 
L 2284 2403 
Q 2872 2403 3119 2622 
Q 3366 2841 3366 3238 
Q 3366 3525 3220 3729 
Q 3075 3934 2838 4000 
Q 2684 4041 2272 4041 
L 1100 4041 
L 1100 2403 
z
" transform="scale(0.015625)"/>
      <path id="ArialMT-4f" d="M 309 2231 
Q 309 3372 921 4017 
Q 1534 4663 2503 4663 
Q 3138 4663 3647 4359 
Q 4156 4056 4423 3514 
Q 4691 2972 4691 2284 
Q 4691 1588 4409 1038 
Q 4128 488 3612 205 
Q 3097 -78 2500 -78 
Q 1853 -78 1343 234 
Q 834 547 571 1087 
Q 309 1628 309 2231 
z
M 934 2222 
Q 934 1394 1379 917 
Q 1825 441 2497 441 
Q 3181 441 3623 922 
Q 4066 1403 4066 2288 
Q 4066 2847 3877 3264 
Q 3688 3681 3323 3911 
Q 2959 4141 2506 4141 
Q 1863 4141 1398 3698 
Q 934 3256 934 2222 
z
" transform="scale(0.015625)"/>
      <path id="ArialMT-42" d="M 469 0 
L 469 4581 
L 2188 4581 
Q 2713 4581 3030 4442 
Q 3347 4303 3526 4014 
Q 3706 3725 3706 3409 
Q 3706 3116 3547 2856 
Q 3388 2597 3066 2438 
Q 3481 2316 3704 2022 
Q 3928 1728 3928 1328 
Q 3928 1006 3792 729 
Q 3656 453 3456 303 
Q 3256 153 2954 76 
Q 2653 0 2216 0 
L 469 0 
z
M 1075 2656 
L 2066 2656 
Q 2469 2656 2644 2709 
Q 2875 2778 2992 2937 
Q 3109 3097 3109 3338 
Q 3109 3566 3000 3739 
Q 2891 3913 2687 3977 
Q 2484 4041 1991 4041 
L 1075 4041 
L 1075 2656 
z
M 1075 541 
L 2216 541 
Q 2509 541 2628 563 
Q 2838 600 2978 687 
Q 3119 775 3209 942 
Q 3300 1109 3300 1328 
Q 3300 1584 3169 1773 
Q 3038 1963 2805 2039 
Q 2572 2116 2134 2116 
L 1075 2116 
L 1075 541 
z
" transform="scale(0.015625)"/>
      <path id="ArialMT-73" d="M 197 991 
L 753 1078 
Q 800 744 1014 566 
Q 1228 388 1613 388 
Q 2000 388 2187 545 
Q 2375 703 2375 916 
Q 2375 1106 2209 1216 
Q 2094 1291 1634 1406 
Q 1016 1563 777 1677 
Q 538 1791 414 1992 
Q 291 2194 291 2438 
Q 291 2659 392 2848 
Q 494 3038 669 3163 
Q 800 3259 1026 3326 
Q 1253 3394 1513 3394 
Q 1903 3394 2198 3281 
Q 2494 3169 2634 2976 
Q 2775 2784 2828 2463 
L 2278 2388 
Q 2241 2644 2061 2787 
Q 1881 2931 1553 2931 
Q 1166 2931 1000 2803 
Q 834 2675 834 2503 
Q 834 2394 903 2306 
Q 972 2216 1119 2156 
Q 1203 2125 1616 2013 
Q 2213 1853 2448 1751 
Q 2684 1650 2818 1456 
Q 2953 1263 2953 975 
Q 2953 694 2789 445 
Q 2625 197 2315 61 
Q 2006 -75 1616 -75 
Q 969 -75 630 194 
Q 291 463 197 991 
z
" transform="scale(0.015625)"/>
      <path id="ArialMT-6c" d="M 409 0 
L 409 4581 
L 972 4581 
L 972 0 
L 409 0 
z
" transform="scale(0.015625)"/>
      <path id="ArialMT-54" d="M 1659 0 
L 1659 4041 
L 150 4041 
L 150 4581 
L 3781 4581 
L 3781 4041 
L 2266 4041 
L 2266 0 
L 1659 0 
z
" transform="scale(0.015625)"/>
      <path id="ArialMT-62" d="M 941 0 
L 419 0 
L 419 4581 
L 981 4581 
L 981 2947 
Q 1338 3394 1891 3394 
Q 2197 3394 2470 3270 
Q 2744 3147 2920 2923 
Q 3097 2700 3197 2384 
Q 3297 2069 3297 1709 
Q 3297 856 2875 390 
Q 2453 -75 1863 -75 
Q 1275 -75 941 416 
L 941 0 
z
M 934 1684 
Q 934 1088 1097 822 
Q 1363 388 1816 388 
Q 2184 388 2453 708 
Q 2722 1028 2722 1663 
Q 2722 2313 2464 2622 
Q 2206 2931 1841 2931 
Q 1472 2931 1203 2611 
Q 934 2291 934 1684 
z
" transform="scale(0.015625)"/>
      <path id="ArialMT-79" d="M 397 -1278 
L 334 -750 
Q 519 -800 656 -800 
Q 844 -800 956 -737 
Q 1069 -675 1141 -563 
Q 1194 -478 1313 -144 
Q 1328 -97 1363 -6 
L 103 3319 
L 709 3319 
L 1400 1397 
Q 1534 1031 1641 628 
Q 1738 1016 1872 1384 
L 2581 3319 
L 3144 3319 
L 1881 -56 
Q 1678 -603 1566 -809 
Q 1416 -1088 1222 -1217 
Q 1028 -1347 759 -1347 
Q 597 -1347 397 -1278 
z
" transform="scale(0.015625)"/>
     </defs>
     <use xlink:href="#ArialMT-50"/>
     <use xlink:href="#ArialMT-65" x="66.699219"/>
     <use xlink:href="#ArialMT-72" x="122.314453"/>
     <use xlink:href="#ArialMT-63" x="155.615234"/>
     <use xlink:href="#ArialMT-65" x="205.615234"/>
     <use xlink:href="#ArialMT-6e" x="261.230469"/>
     <use xlink:href="#ArialMT-74" x="316.845703"/>
     <use xlink:href="#ArialMT-20" x="344.628906"/>
     <use xlink:href="#ArialMT-49" x="372.412109"/>
     <use xlink:href="#ArialMT-6d" x="400.195312"/>
     <use xlink:href="#ArialMT-70" x="483.496094"/>
     <use xlink:href="#ArialMT-72" x="539.111328"/>
     <use xlink:href="#ArialMT-6f" x="572.412109"/>
     <use xlink:href="#ArialMT-76" x="628.027344"/>
     <use xlink:href="#ArialMT-65" x="678.027344"/>
     <use xlink:href="#ArialMT-6d" x="733.642578"/>
     <use xlink:href="#ArialMT-65" x="816.943359"/>
     <use xlink:href="#ArialMT-6e" x="872.558594"/>
     <use xlink:href="#ArialMT-74" x="928.173828"/>
     <use xlink:href="#ArialMT-20" x="955.957031"/>
     <use xlink:href="#ArialMT-4f" x="983.740234"/>
     <use xlink:href="#ArialMT-76" x="1061.523438"/>
     <use xlink:href="#ArialMT-65" x="1111.523438"/>
     <use xlink:href="#ArialMT-72" x="1167.138672"/>
     <use xlink:href="#ArialMT-20" x="1200.439453"/>
     <use xlink:href="#ArialMT-42" x="1228.222656"/>
     <use xlink:href="#ArialMT-61" x="1294.921875"/>
     <use xlink:href="#ArialMT-73" x="1350.537109"/>
     <use xlink:href="#ArialMT-65" x="1400.537109"/>
     <use xlink:href="#ArialMT-6c" x="1456.152344"/>
     <use xlink:href="#ArialMT-69" x="1478.369141"/>
     <use xlink:href="#ArialMT-6e" x="1500.585938"/>
     <use xlink:href="#ArialMT-65" x="1556.201172"/>
     <use xlink:href="#ArialMT-20" x="1611.816406"/>
     <use xlink:href="#ArialMT-28" x="1639.599609"/>
     <use xlink:href="#ArialMT-54" x="1672.900391"/>
     <use xlink:href="#ArialMT-65" x="1722.859375"/>
     <use xlink:href="#ArialMT-73" x="1778.474609"/>
     <use xlink:href="#ArialMT-74" x="1828.474609"/>
     <use xlink:href="#ArialMT-20" x="1856.257812"/>
     <use xlink:href="#ArialMT-46" x="1884.041016"/>
     <use xlink:href="#ArialMT-31" x="1945.125"/>
     <use xlink:href="#ArialMT-29" x="2000.740234"/>
     <use xlink:href="#ArialMT-20" x="2034.041016"/>
     <use xlink:href="#ArialMT-62" x="2061.824219"/>
     <use xlink:href="#ArialMT-79" x="2117.439453"/>
     <use xlink:href="#ArialMT-20" x="2167.439453"/>
     <use xlink:href="#ArialMT-41" x="2189.722656"/>
     <use xlink:href="#ArialMT-75" x="2256.421875"/>
     <use xlink:href="#ArialMT-67" x="2312.037109"/>
     <use xlink:href="#ArialMT-6d" x="2367.652344"/>
     <use xlink:href="#ArialMT-65" x="2450.953125"/>
     <use xlink:href="#ArialMT-6e" x="2506.568359"/>
     <use xlink:href="#ArialMT-74" x="2562.183594"/>
     <use xlink:href="#ArialMT-61" x="2589.966797"/>
     <use xlink:href="#ArialMT-74" x="2645.582031"/>
     <use xlink:href="#ArialMT-69" x="2673.365234"/>
     <use xlink:href="#ArialMT-6f" x="2695.582031"/>
     <use xlink:href="#ArialMT-6e" x="2751.197266"/>
     <use xlink:href="#ArialMT-20" x="2806.8125"/>
     <use xlink:href="#ArialMT-46" x="2834.595703"/>
     <use xlink:href="#ArialMT-61" x="2895.679688"/>
     <use xlink:href="#ArialMT-63" x="2951.294922"/>
     <use xlink:href="#ArialMT-74" x="3001.294922"/>
     <use xlink:href="#ArialMT-6f" x="3029.078125"/>
     <use xlink:href="#ArialMT-72" x="3084.693359"/>
    </g>
   </g>
  </g>
 </g>
 <defs>
  <clipPath id="pb5260920c9">
   <rect x="38.985938" y="21.943125" width="669.6" height="332.64"/>
  </clipPath>
 </defs>
</svg>
